<svg width="131" height="15" fill="none" xmlns="http://www.w3.org/2000/svg"><g clip-path="url(#clip0_279_5814)" fill="#080808"><path d="M125.222 14.071a1.312 1.312 0 001.271-1.25V1.803a1.28 1.28 0 00-1.271-1.23h-.258V.37h6.037v.203h-.258a1.263 1.263 0 00-1.271 1.23v11.022a1.263 1.263 0 001.271 1.251h.258v.203h-6.037v-.203l.258-.006zM114.455.369h-7.19v.203h.26c.608 0 1.251.515 1.251 1.131v11.122a1.27 1.27 0 01-1.251 1.25h-.26v.203h7.19c4.548 0 7.587-2.461 7.587-6.95 0-4.49-3.138-6.959-7.587-6.959zm-.257 13.048h-2.434V1.197h2.434c3.244 0 4.626 2.86 4.626 6.354.011 3.244-1.569 5.866-4.626 5.866zM95.546 1.243V12.8a1.27 1.27 0 001.264 1.274h.263v.202h-6.036v-.202h.258a1.216 1.216 0 001.27-1.16V1.819a1.26 1.26 0 00-1.27-1.251h-.258V.365h6.81c2.742 0 4.727 1.111 4.727 3.932a3.548 3.548 0 01-3.276 3.59c2.303.734 3.197 4.569 5.223 5.838.387.239.837.357 1.291.338v.203h-1.946c-2.125 0-3.774-.456-4.664-2.066-.257-.436-.795-1.567-1.648-3.394-.377-.795-.811-1.253-1.35-1.332v-.175h.634c1.61 0 2.563-1.389 2.563-2.94 0-2.283-.811-3.116-2.938-3.116h-.916zM88.89 14.072a1.797 1.797 0 01-1.65-1.112L81.494.37h-.159L75.893 13a1.786 1.786 0 01-1.608 1.072h-.18v.203h4.144v-.202h-.166c-.655 0-1.052-.515-.754-1.217l1.014-2.383h4.507l.953 2.383c.26.635-.039 1.216-.734 1.216h-.178v.203h6.162v-.202h-.163zM78.653 9.684l1.987-4.767 1.886 4.767h-3.873zm-15.578.296h.203v.318c0 1.926 1.53 3.417 3.674 3.417 1.61 0 2.82-.795 2.82-2.245 0-.914-.634-1.42-1.587-2.046l-3.447-2.283a4.084 4.084 0 01-1.886-3.574c0-2.166 1.786-3.476 4.17-3.476.735 0 1.623.203 2.702.203h1.25l-.259 2.92h-.203c0-1.509-1.216-2.283-2.798-2.283-1.311 0-2.603.754-2.603 1.867 0 .793.458 1.271 1.39 1.886l3.794 2.463c1.19.775 1.787 1.787 1.787 3.058 0 2.92-2.23 4.35-5.262 4.35-1.37 0-3.297-.338-4.17-1.217l.425-3.358zm-13.18 0h.202v.318c0 1.926 1.53 3.417 3.672 3.417 1.61 0 2.82-.795 2.82-2.245 0-.914-.634-1.42-1.587-2.046l-3.447-2.283a4.084 4.084 0 01-1.885-3.574C49.67 1.4 51.456.09 53.84.09c.734 0 1.622.203 2.701.203h1.251l-.26 2.92h-.202c0-1.509-1.217-2.283-2.8-2.283-1.312 0-2.602.754-2.602 1.867 0 .793.457 1.271 1.39 1.886l3.793 2.463c1.19.775 1.786 1.787 1.786 3.058 0 2.92-2.23 4.35-5.261 4.35-1.371 0-3.297-.338-4.171-1.217l.43-3.358zM45.688.568c-.576 0-1.034.377-1.034.932v7.726c0 3.317-2.204 5.322-5.72 5.322-3.832 0-6.474-1.707-6.474-5.302V1.559c0-.596-.477-.991-1.073-.991h-.298V.365h5.72v.203h-.328c-.576 0-1.053.395-1.053.953v7.583c0 2.662 1.35 4.568 3.873 4.568 2.462 0 3.952-1.648 3.952-4.309V1.521c0-.576-.477-.953-1.052-.953h-.327V.365h4.15v.203h-.336zm-25.631.675V12.8a1.27 1.27 0 001.263 1.274h.264v.202h-6.046v-.202h.261a1.216 1.216 0 001.271-1.16V1.819A1.263 1.263 0 0015.8.568h-.258V.365h6.806c2.742 0 4.727 1.111 4.727 3.932a3.552 3.552 0 01-3.277 3.59c2.303.734 3.198 4.569 5.223 5.838.387.239.837.357 1.292.338v.203H28.37c-2.125 0-3.773-.456-4.663-2.066-.258-.436-.795-1.567-1.649-3.394-.377-.795-.81-1.253-1.35-1.332v-.175h.635c1.61 0 2.563-1.389 2.563-2.94 0-2.283-.811-3.116-2.938-3.116h-.91zM.203 3.447H0V0c.537.217 1.31.337 2.344.357h8.013a8.11 8.11 0 001.33-.12A5.418 5.418 0 0012.701 0v3.447h-.203v-.24c0-1.23-.833-2.027-1.985-2.027H7.851v11.66a1.257 1.257 0 001.27 1.23h.259v.203H3.34v-.203h.257a1.304 1.304 0 001.271-1.216V1.183h-2.68c-1.19 0-1.985.81-1.985 2.027v.237z"/></g><defs><clipPath id="clip0_279_5814"><path fill="#fff" d="M0 0h131v15H0z"/></clipPath></defs></svg>