<svg width="117" height="32" fill="none" xmlns="http://www.w3.org/2000/svg"><g clip-path="url(#clip0_279_5837)" fill="#080808"><path d="M29.473 5.724c-.878 2.098-1.741 4.196-2.635 6.294-.893 2.098-1.699 4.196-2.628 6.24h-.986c-1.798-5.77-3.579-11.547-5.395-17.383h2.922c1.295 4.223 2.503 8.5 3.833 12.86.414-1.012.792-1.92 1.16-2.835 1.261-3.123 2.52-6.246 3.78-9.371.281-.69.278-.69 1.198-.657 1.523 4.034 3.06 8.116 4.598 12.198h.102L39.123.887h1.652c-1.82 5.815-3.62 11.575-5.431 17.356h-.968a4659.355 4659.355 0 01-4.795-12.516h-.108M55.4 3.923v14.191h-1.387V.887h2.539l9.318 12.471.099-.027V.941H67.4v17.296h-1.163L55.518 3.884l-.117.048m42.741 4.861V10.2h-6.6v6.576h7.682v1.333H88.836V.896h9.81v1.307h-7.104v6.59h6.6zM83.151 4.735H82.1l-.21-.617a3.342 3.342 0 00-4.667-1.945c-1.726.836-2.029 3.297-.536 4.576.443.359.917.677 1.417.95 1.1.645 2.224 1.25 3.327 1.892 1.103.641 1.927 1.45 2.203 2.697.554 2.497-.327 4.795-2.997 5.724a7.67 7.67 0 01-5.224 0c-1.63-.572-2.419-1.825-2.742-3.443-.042-.195-.06-.396-.087-.6a.386.386 0 010-.09h1.046l.21.657c.422 1.42 1.324 2.338 2.829 2.496a9.75 9.75 0 002.397-.03c1.142-.167 1.853-.899 2.098-2.04.246-1.142.048-2.2-.899-2.977a10.195 10.195 0 00-1.585-.959c-1.1-.6-2.23-1.166-3.297-1.798a3.873 3.873 0 01-1.945-2.86c-.402-2.882 1.028-5.232 4.22-5.694a6.542 6.542 0 011.993.06c1.894.321 2.937 1.55 3.371 3.36.051.207.075.417.117.66M8.916 18.141H6.22V2.236H0V.953h15.096V2.2h-6.18v15.941zM108.12 2.227h-6.192V.953H117v1.244h-6.198v15.935h-2.682V2.228zM45.073.908h2.55v17.26h-2.55V.908zm.624 25.919h.836l.326 4.43h-.91l-.154-2.755-.977 2.008h-.959l-.977-2.008-.152 2.754h-.912l.327-4.43h.836l1.358 2.86 1.358-2.86zm4.508 0h-.932v4.43h.932v-4.43zm3.491 0v3.69h1.648v.74h-2.58v-4.43h.932zm7.998 4.426h-.962l-.3-.929H58.61l-.3.93h-.964l1.684-4.427h1.01l1.654 4.426zm-2.187-3.692l-.663 2.023h1.33l-.667-2.023zm7.337 3.695l-2.068-2.9v2.9h-.893v-4.43h.893l2.068 2.899v-2.898h.89v4.43h-.89zm7.661-2.214c.003.306-.048.61-.15.899a2.173 2.173 0 01-.431.728c-.195.209-.43.375-.693.489-.3.126-.622.188-.947.182a2.324 2.324 0 01-.95-.182 2.12 2.12 0 01-.701-.495 2.174 2.174 0 01-.432-.728c-.1-.29-.15-.593-.147-.9-.002-.305.048-.61.147-.898.094-.27.24-.519.432-.732a2.12 2.12 0 01.701-.494c.3-.127.624-.19.95-.183.325-.006.648.056.947.183.265.114.503.283.699.494.19.213.337.462.431.732.102.288.152.593.15.899m-2.227 1.561a1.182 1.182 0 00.974-.45 1.44 1.44 0 00.243-.494c.053-.201.079-.409.078-.617a2.396 2.396 0 00-.078-.62 1.438 1.438 0 00-.243-.495 1.18 1.18 0 00-.974-.45 1.255 1.255 0 00-.57.12 1.14 1.14 0 00-.404.33 1.34 1.34 0 00-.243.494 2.28 2.28 0 00-.08.62 2.28 2.28 0 00.08.618c.046.18.129.348.243.495.108.14.246.252.405.33.177.083.373.124.57.12z"/></g><defs><clipPath id="clip0_279_5837"><path fill="#fff" d="M0 0h117v32H0z"/></clipPath></defs></svg>