<svg width="107" height="18" fill="none" xmlns="http://www.w3.org/2000/svg"><g clip-path="url(#clip0_279_5793)" fill="#080808"><path d="M44.111.661h2.742L50.8 8.173S53.46 3.128 54.803.66h2.742v17.025h-2.714V7.433l-3.126 5.702H49.87l-3.1-5.757v10.336h-2.66V.66zm21.001 0h-3.016v17.025h3.016V.661zM2.522 17.686H0V.661h6.744c0-.027 0 .028 0 0 2.166 0 4.085 1.289 4.085 3.07 0 1.399.055 3.784.055 4.936 0 1.645-1.81 2.96-4.112 2.96h-4.25v6.06zm0-8.526h4.442c.575 0 1.233-.356 1.233-.932V4.527c0-.795-.795-1.152-1.343-1.152H2.522V9.16zm37.697 8.526H29.883V.661H40.22v2.604h-7.622V7.46h5.867v2.577h-5.867v5.21h7.622v2.44zm41.097 0H78.3l-1.179-3.783h-4.496l-1.261 3.783h-3.016L73.558.661h2.521l5.237 17.025zM73.2 11.052h3.153l-1.618-5.264-1.535 5.264zm15.626 6.634h-2.824V3.457h-4.276V.661h11.377v2.796h-4.277v14.23zM25.47 9.599c.273-.631.273-2.084.246-3.455-.027-1.535.027-2.96-.384-3.619-.685-1.124-1.864-1.672-3.29-1.864h-7.347v17.025h2.741V11.71h2.495c.795 0 1.261 2 1.563 2.823a178.663 178.663 0 001.206 3.153h2.879c-.713-2.001-2.166-5.675-2.193-5.976.027-.302 1.453-.686 2.083-2.111zm-2.386-1.48c0 .575-.685.931-1.234.931h-4.44V3.265h4.36c.547 0 1.315.412 1.315 1.207v3.646zm83.562 9.567h-3.015l-1.207-3.783h-4.496l-1.26 3.783H93.65L98.915.661h2.55l5.181 17.025zm-8.087-6.634h3.153l-1.618-5.264-1.535 5.264z"/></g><defs><clipPath id="clip0_279_5793"><path fill="#fff" d="M0 0h107v18H0z"/></clipPath></defs></svg>