<svg width="76" height="23" fill="none" xmlns="http://www.w3.org/2000/svg"><g clip-path="url(#clip0_279_5827)" fill="#080808"><path d="M0 .98v20.973h10.46v-2.89H3.05V.98H0zM15.778.967H12.64v20.964h3.138V.967zM64.787.441c-6.192 0-11.211 4.902-11.211 10.951 0 6.05 5.02 10.95 11.211 10.95 6.192 0 11.214-4.9 11.214-10.95C76 5.343 70.98.442 64.787.442zm.046 19.04c-4.38 0-7.933-3.623-7.933-8.091 0-4.468 3.553-8.09 7.933-8.09s7.937 3.622 7.937 8.09-3.55 8.09-7.93 8.09M18.477.978h3.139v15.005c0 .6.379 3.533 3.942 3.533s4.161-2.909 4.161-3.533V.978h3.137v15.005s-.482 6.351-7.298 6.351-7.083-6.351-7.083-6.351L18.477.978zM39.48 7.805a2.742 2.742 0 11-2.79 2.74 2.766 2.766 0 012.79-2.74zM47.675.978h3.139v15.005s.512 6.351-5.929 6.351c-5.096 0-5.913-4.698-5.913-4.698h3.355s.219 1.919 2.565 1.888c3.116 0 2.79-3.539 2.79-3.539L47.675.978z"/></g><defs><clipPath id="clip0_279_5827"><path fill="#fff" d="M0 0h76v23H0z"/></clipPath></defs></svg>