<svg width="104" height="19" fill="none" xmlns="http://www.w3.org/2000/svg"><g clip-path="url(#clip0_279_5805)" fill="#080808"><path d="M16.532 6.014c0-4.9-4.447-5.176-4.447-5.176H0V17.37l3.668.1v-6.43h8.116c5.3 0 4.748-5.025 4.748-5.025zM10.477 8.5H3.618V3.55h6.658s2.688-.25 2.688 2.538c0 2.638-2.487 2.412-2.487 2.412zM26.483.863h-4.12v16.582h4.12V.863zM48.09 17.445h3.82V.863h-3.82l.026 12.336L37.865.863h-4.648v16.582h3.819V5.235l10.552 12.21h.503zm30.777 0L67.033 8.752 77.485.913H72.11l-9.774 7.613V.863h-3.87v16.582h3.87v-8.19l11.105 8.19h5.427zm12.992.805c-3.367 0-6.055-.805-8.066-2.413-2.01-1.608-3.04-3.693-3.04-6.28 0-2.765 1.03-4.976 3.09-6.634C85.905 1.265 88.719.461 92.262.461c3.266 0 5.904.804 7.914 2.412 2.01 1.608 2.99 3.693 2.99 6.281 0 2.814-1.03 5.025-3.065 6.658-2.06 1.608-4.8 2.437-8.241 2.437zm.175-15.05c-2.16 0-3.894.577-5.226 1.708-1.331 1.13-2.01 2.613-2.01 4.472 0 1.834.654 3.317 1.96 4.447 1.307 1.131 3.015 1.684 5.1 1.684 2.237 0 4.02-.528 5.302-1.608 1.281-1.08 1.935-2.563 1.935-4.498 0-1.984-.629-3.492-1.885-4.572-1.23-1.08-2.964-1.633-5.175-1.633z"/></g><defs><clipPath id="clip0_279_5805"><path fill="#fff" d="M0 0h104v19H0z"/></clipPath></defs></svg>