<svg width="69" height="24" fill="none" xmlns="http://www.w3.org/2000/svg"><g clip-path="url(#clip0_4602_7698)" fill="#D0D0D0"><path d="M46.488.489l-.34 2.295c-.758-.414-1.327-.565-1.933-.565-1.59 0-2.727 1.618-2.727 3.912 0 1.58.758 2.559 2.008 2.559.53 0 1.098-.189 1.818-.527l-.38 2.407c-.795.226-1.286.301-1.893.301-2.31 0-3.75-1.73-3.75-4.514C39.291 2.595 41.262 0 44.14 0c.38 0 .682.038.985.113l.91.226c.094.037.16.056.226.075l.033.009.038.01.031.011c.043.013.085.028.127.045h-.001z"/><path fill-rule="evenodd" clip-rule="evenodd" d="M65.918 10.006h-.227V8.802h.491c.115 0 .228 0 .304.075a.344.344 0 01.152.301c0 .151-.076.263-.19.301l.228.527h-.38l-.189-.451h-.19l.001.451zm.037-.677h.152c.076 0 .114 0 .152-.038.038 0 .038-.037.038-.113 0-.037-.038-.113-.076-.113-.038-.037-.114-.037-.152-.037h-.15l.036.301z"/><path fill-rule="evenodd" clip-rule="evenodd" d="M64.857 9.405c0-.715.569-1.318 1.288-1.318.72 0 1.288.603 1.288 1.318 0 .714-.569 1.316-1.288 1.316-.72.037-1.288-.565-1.288-1.316zm1.25 1.052c.53 0 .985-.45.985-1.016 0-.564-.454-1.015-.985-1.015-.53 0-.985.451-.985 1.015 0 .565.455 1.016.985 1.016z"/><path d="M39.255 2.042c.026.006.05.015.074.026h.114c-.38.716-.644 1.468-.833 2.483h-.152c-1.022 0-1.212.866-2.007 6.095h-2.159l1.326-8.502h1.893l-.19 1.28c.683-1.016 1.1-1.393 1.781-1.393.051 0 .102 0 .153.011zm-12.765 8.49c-.57.189-1.06.301-1.552.301-1.1 0-1.706-.64-1.706-1.88 0-.197.03-.423.062-.677l.014-.114.151-.827.114-.677.947-5.793h2.122l-.266 1.242h1.098l-.303 2.068h-1.098l-.569 3.537c-.037.15-.037.263-.037.338 0 .451.227.64.72.64.265 0 .416-.038.568-.076l-.265 1.918zm-6.818-3.348c-1.136-.564-1.628-1.278-1.628-2.37-.038-1.58.795-2.858 3.256-2.82.493 0 1.326.075 1.894.188l-.302 1.955h-.003c-.567-.075-1.134-.15-1.55-.15-.72 0-1.062.226-1.062.677 0 .414.077.527.986.94 1.098.527 1.515 1.204 1.515 2.37 0 1.919-1.022 2.822-3.295 2.822-.266 0-.681-.038-1.175-.076a2.06 2.06 0 01-.567-.074l-.38-.076-.113-.037.303-1.957c.72.226 1.288.339 1.932.339.833 0 1.212-.263 1.212-.79 0-.376-.152-.527-1.023-.94z"/><path fill-rule="evenodd" clip-rule="evenodd" d="M63.608 10.646h-2.046l.114-.828c-.568.64-1.212.94-1.97.94-1.59 0-2.613-1.391-2.613-3.536 0-2.82 1.59-5.228 3.485-5.228.833 0 1.438.376 2.045 1.165l.454-3.008H65.2l-1.591 10.495zm-3.182-1.994c1.023 0 1.704-1.166 1.704-2.897 0-1.09-.416-1.692-1.136-1.692-.985 0-1.666 1.203-1.666 2.858 0 1.13.378 1.731 1.098 1.731zm-29.354 2.144c.796 0 1.478-.113 2.235-.339l.303-2.106c-.795.339-1.477.526-2.234.526-1.25 0-1.894-.488-1.894-1.504 0-.075 0-.113.038-.264h4.28c.19-.865.264-1.504.264-2.106 0-1.918-1.098-3.122-2.878-3.122-2.159 0-3.75 2.144-3.75 5.078 0 2.52 1.25 3.837 3.636 3.837zm1.061-5.83c0 .075 0 .263-.038.413v.038h-2.348c.19-1.016.681-1.543 1.363-1.543.644 0 1.023.414 1.023 1.091z"/><path d="M9.408 10.646H7.286L8.5 2.596l-2.765 8.05h-1.44l-.19-8.013-1.286 8.013H.809L2.478.189h3.068l.113 6.47L7.742.187h3.333L9.408 10.645z"/><path fill-rule="evenodd" clip-rule="evenodd" d="M14.71 10.646h1.781l.037-.227.038-.3.038-.451.076-.527.454-3.01c.152-.978.19-1.279.19-1.692 0-1.618-.947-2.483-2.803-2.483-.795 0-1.514.113-2.575.452l-.303 1.918.19-.075.264-.114a6.544 6.544 0 011.78-.263c.985 0 1.363.227 1.363.79 0 .15 0 .264-.075.565a7.444 7.444 0 00-.87-.076c-2.387 0-3.789 1.204-3.789 3.273 0 1.392.796 2.332 1.97 2.332 1.022 0 1.742-.3 2.273-1.016l-.038.904zm-.265-3.838c.152 0 .266 0 .493.038-.038 1.241-.682 2.145-1.515 2.107-.492 0-.796-.339-.796-.866 0-.827.606-1.279 1.818-1.279zm37.308 3.838h-1.78l.037-.903c-.53.714-1.25 1.015-2.272 1.015-1.174 0-1.97-.94-1.97-2.331 0-2.07 1.401-3.274 3.788-3.274a8.2 8.2 0 01.87.076c.077-.3.077-.415.077-.564 0-.564-.38-.79-1.364-.79-.606 0-1.288.112-1.78.262l-.304.076-.19.075.304-1.918c1.061-.339 1.78-.452 2.576-.452 1.856 0 2.803.866 2.803 2.483 0 .413-.038.714-.19 1.693l-.454 3.009-.076.527-.075.413-.038.302.038.3zm-1.553-3.8c-.228-.038-.342-.038-.493-.038-1.212 0-1.855.452-1.855 1.28 0 .526.302.903.795.903.87 0 1.515-.904 1.553-2.145z"/><path d="M57.672 2.045a.283.283 0 01.065.024h.113c-.38.715-.644 1.467-.833 2.482h-.152c-1.022 0-1.211.866-2.007 6.095h-2.16l1.288-8.501h1.932l-.19 1.278c.682-1.015 1.099-1.392 1.78-1.392.055 0 .11 0 .164.014zM4.977 15.046c.719 0 1.287.227 1.666.489l.605-2.143c-.53-.34-1.4-.49-2.347-.49-1.667 0-3.409.828-3.409 3.574 0 1.712.955 2.242 1.78 2.7.625.348 1.174.654 1.174 1.4 0 1.09-.985 1.28-1.628 1.28-.682 0-1.478-.227-1.894-.603L.43 23.397c.645.301 1.553.564 2.349.564 1.78 0 3.711-.789 3.711-3.724 0-1.922-1.043-2.503-1.89-2.974-.578-.32-1.064-.592-1.064-1.2 0-.828.606-1.017 1.44-1.017zm39.351.866l.342-2.295a8.807 8.807 0 01-.227-.094 8.863 8.863 0 00-.228-.094l-.833-.226a3.336 3.336 0 00-.909-.113c-2.69 0-4.545 2.596-4.545 6.358 0 2.783 1.363 4.513 3.522 4.513.568 0 1.06-.075 1.78-.3l.34-2.37c-.642.338-1.21.527-1.703.527-1.174 0-1.856-.978-1.856-2.559 0-2.294 1.06-3.912 2.538-3.912.567 0 1.06.151 1.78.565z"/><path fill-rule="evenodd" clip-rule="evenodd" d="M47.776 15.084c2.007 0 3.067 1.693 3.067 3.837 0 3.574-1.59 5.116-3.826 5.078-2.158 0-3.068-1.768-3.068-3.912 0-2.972 1.516-5.003 3.827-5.003zm-.607 6.921c.947 0 1.553-1.165 1.553-3.084 0-.903-.265-1.73-1.061-1.692-.983 0-1.59 1.542-1.59 2.896 0 1.128.417 1.918 1.098 1.88z"/><path d="M31.375 15.16c-.076-.038-.152-.038-.227-.038-.644 0-1.023.376-1.667 1.392l.19-1.279h-1.818l-1.212 8.501h2.007c.757-5.19.947-6.094 1.894-6.094.076 0 .076 0 .152.038.19-1.016.416-1.768.757-2.483l-.076-.037z"/><path fill-rule="evenodd" clip-rule="evenodd" d="M55.692 23.66h1.893L59.1 13.167h-1.932l-.454 3.008c-.569-.788-1.136-1.165-1.932-1.165-1.743 0-3.257 2.407-3.257 5.228 0 2.145.985 3.537 2.424 3.537.72 0 1.325-.301 1.856-.94l-.113.827zm.491-4.852c0 1.693-.643 2.859-1.59 2.859-.682 0-1.023-.564-1.023-1.654 0-1.694.644-2.86 1.552-2.86.683 0 1.061.564 1.061 1.655zM12.59 23.623a6.27 6.27 0 01-2.045.338c-2.235 0-3.409-1.316-3.409-3.836 0-2.897 1.477-5.079 3.485-5.079 1.666 0 2.688 1.205 2.688 3.123 0 .602-.075 1.241-.264 2.106H9.067a1.456 1.456 0 00-.038.213v.05c0 .978.606 1.468 1.78 1.468.72 0 1.363-.19 2.083-.527l-.303 2.144zm-1.136-5.04c0-.116.014-.217.025-.295v-.002a3.29 3.29 0 00.013-.117c0-.677-.341-1.091-.947-1.091-.644 0-1.099.526-1.288 1.543h2.197v-.038zm22.952 5.379c.72 0 1.364-.113 2.045-.34l.304-2.143c-.72.339-1.364.527-2.084.527-1.173 0-1.78-.49-1.78-1.467 0-.049 0-.082.01-.138.006-.033.015-.072.028-.126h4.015c.19-.865.265-1.504.265-2.106 0-1.918-1.06-3.123-2.727-3.123-2.008 0-3.485 2.183-3.485 5.079 0 2.52 1.136 3.837 3.41 3.837zm.947-5.793c0 .075 0 .225-.038.414v.037h-2.197c.19-1.015.645-1.542 1.288-1.542.606 0 .947.414.947 1.09zm29.05 5.454a6.455 6.455 0 01-2.045.338c-2.234 0-3.409-1.316-3.409-3.836 0-2.897 1.516-5.079 3.523-5.079 1.666 0 2.69 1.205 2.69 3.123 0 .602-.077 1.241-.267 2.106h-3.976c-.038.15-.038.189-.038.264 0 .977.606 1.466 1.78 1.466.72 0 1.363-.188 2.084-.526l-.341 2.144zm-1.136-5.04c0-.116.015-.217.026-.295l.005-.038.003-.026a.458.458 0 00.004-.055c0-.677-.34-1.091-.947-1.091-.643 0-1.098.526-1.288 1.543h2.197v-.038z"/><path d="M18.46 23.623c-.416.188-.985.338-1.78.338-1.742 0-2.841-1.73-2.841-3.874 0-2.784 1.591-4.965 3.9-4.965.493 0 1.289.225 1.895.564l-.455 2.031a2.255 2.255 0 00-1.325-.451c-1.061 0-1.856.978-1.856 2.708 0 1.016.568 1.843 1.44 1.843.53 0 .908-.112 1.325-.375l-.303 2.181zm7.234.038c.067-.73.156-1.457.265-2.182l.947-6.244h-2.083l-.607 3.912c-.15 1.279-.681 2.331-1.552 2.331-.606.039-.833-.488-.833-.977 0-.414.076-.866.152-1.279l.53-3.95h-2.16l-.53 3.95c-.113.865-.151 1.204-.151 1.768 0 1.617.643 2.897 1.856 2.897 1.136 0 1.742-.64 2.348-1.58h.038l-.151 1.354h1.93zm40.716-.076h-.34v-1.39h-.455v-.303h1.25v.301h-.455v1.392zm1.856 0h.303v-1.693h-.455l-.265 1.355h-.038l-.265-1.355h-.492v1.693h.302v-1.428l.304 1.43h.302l.304-1.43v1.428z"/></g><defs><clipPath id="clip0_4602_7698"><path fill="#fff" d="M0 0h69v24H0z"/></clipPath></defs></svg>