<svg viewBox="0 0 24 24"  xmlns="http://www.w3.org/2000/svg" style="display:none">

	<symbol viewBox="0 0 20 20" id="favorite">
		<path d="M17.3667 3.84172C16.941 3.41589 16.4357 3.0781 15.8795 2.84763C15.3232 2.61716 14.7271 2.49854 14.125 2.49854C13.5229 2.49854 12.9268 2.61716 12.3705 2.84763C11.8143 3.0781 11.309 3.41589 10.8833 3.84172L10 4.72506L9.11666 3.84172C8.25692 2.98198 7.09086 2.49898 5.875 2.49898C4.65914 2.49898 3.49307 2.98198 2.63333 3.84172C1.77359 4.70147 1.29059 5.86753 1.29059 7.08339C1.29059 8.29925 1.77359 9.46531 2.63333 10.3251L3.51666 11.2084L10 17.6917L16.4833 11.2084L17.3667 10.3251C17.7925 9.89943 18.1303 9.39407 18.3608 8.83785C18.5912 8.28164 18.7099 7.68546 18.7099 7.08339C18.7099 6.48132 18.5912 5.88514 18.3608 5.32893C18.1303 4.77271 17.7925 4.26735 17.3667 3.84172Z" stroke="currentColor" stroke-linecap="round" stroke-linejoin="round" fill="none"/>
	</symbol>

	<symbol viewBox="0 0 20 20" id="search">
		<path d="M9.16667 15.8333C12.8486 15.8333 15.8333 12.8486 15.8333 9.16667C15.8333 5.48477 12.8486 2.5 9.16667 2.5C5.48477 2.5 2.5 5.48477 2.5 9.16667C2.5 12.8486 5.48477 15.8333 9.16667 15.8333Z" stroke="currentColor" stroke-linecap="round" stroke-linejoin="round" fill="none"/>
		<path d="M17.5 17.5L13.875 13.875" fill="none" stroke="currentColor" stroke-linecap="round" stroke-linejoin="round"/>	
	</symbol>

	<symbol viewBox="0 0 20 20" id="search-active">
		<path d="M9.16667 15.8333C12.8486 15.8333 15.8333 12.8486 15.8333 9.16667C15.8333 5.48477 12.8486 2.5 9.16667 2.5C5.48477 2.5 2.5 5.48477 2.5 9.16667C2.5 12.8486 5.48477 15.8333 9.16667 15.8333Z" fill="currentColor" stroke="currentColor" stroke-linecap="round" stroke-linejoin="round"/>
		<path d="M17.5 17.5L13.875 13.875" fill="none" stroke="currentColor" stroke-linecap="round" stroke-linejoin="round"/>
	</symbol>

	<symbol viewBox="0 0 20 20" id="cart">
		<path d="M5 1.6665L2.5 4.99984V16.6665C2.5 17.1085 2.67559 17.5325 2.98816 17.845C3.30072 18.1576 3.72464 18.3332 4.16667 18.3332H15.8333C16.2754 18.3332 16.6993 18.1576 17.0118 17.845C17.3244 17.5325 17.5 17.1085 17.5 16.6665V4.99984L15 1.6665H5Z" stroke="currentColor" stroke-linecap="round" stroke-linejoin="round" fill="none"/>
		<path d="M2.5 5H17.5" stroke="currentColor" stroke-linecap="round" stroke-linejoin="round" fill="none"/>
		<path d="M13.3334 8.3335C13.3334 9.21755 12.9822 10.0654 12.357 10.6905C11.7319 11.3156 10.8841 11.6668 10 11.6668C9.11597 11.6668 8.26812 11.3156 7.643 10.6905C7.01788 10.0654 6.66669 9.21755 6.66669 8.3335" stroke="currentColor" stroke-linecap="round" stroke-linejoin="round" fill="none"/>
	</symbol>

	<symbol viewBox="0 0 13 7" id="drop-down-arrow">
		<path fill-rule="evenodd" clip-rule="evenodd" d="M0.146447 0.146447C0.341709 -0.0488155 0.658291 -0.0488155 0.853553 0.146447L6.5 5.79289L12.1464 0.146447C12.3417 -0.0488155 12.6583 -0.0488155 12.8536 0.146447C13.0488 0.341709 13.0488 0.658291 12.8536 0.853553L6.85355 6.85355C6.65829 7.04882 6.34171 7.04882 6.14645 6.85355L0.146447 0.853553C-0.0488155 0.658291 -0.0488155 0.341709 0.146447 0.146447Z" fill="currentColor"/>
	</symbol>

	<symbol viewBox="0 0 24 24" id="telegram">
		<path d="M20.665 3.71706L2.93497 10.5541C1.72497 11.0401 1.73197 11.7151 2.71297 12.0161L7.26497 13.4361L17.797 6.79106C18.295 6.48806 18.75 6.65106 18.376 6.98306L9.84297 14.6841H9.84097L9.84297 14.6851L9.52897 19.3771C9.98897 19.3771 10.192 19.1661 10.45 18.9171L12.661 16.7671L17.26 20.1641C18.108 20.6311 18.717 20.3911 18.928 19.3791L21.947 5.15106C22.256 3.91206 21.474 3.35106 20.665 3.71706Z" fill="currentColor"/>
	</symbol>

	<symbol viewBox="0 0 24 24" id="viber">
		<path fill-rule="evenodd" clip-rule="evenodd" d="M16.676 2.62805C13.5298 1.92477 10.2672 1.92477 7.12101 2.62805L6.78201 2.70305C5.89702 2.90091 5.08421 3.34023 4.43387 3.97221C3.78353 4.60419 3.32112 5.40409 3.09801 6.28305C2.3005 9.42557 2.3005 12.7175 3.09801 15.86C3.31078 16.6983 3.74141 17.4654 4.34624 18.0836C4.95107 18.7018 5.70859 19.149 6.54201 19.38L7.00701 22.156C7.02185 22.2442 7.06005 22.3268 7.11764 22.3951C7.17523 22.4635 7.25009 22.5152 7.33443 22.5448C7.41877 22.5744 7.50951 22.5809 7.5972 22.5635C7.68489 22.5461 7.76632 22.5056 7.83301 22.446L10.564 20.003C12.6141 20.1282 14.6716 19.9642 16.676 19.516L17.016 19.441C17.901 19.2432 18.7138 18.8039 19.3641 18.1719C20.0145 17.5399 20.4769 16.74 20.7 15.861C21.4974 12.7185 21.4974 9.42658 20.7 6.28405C20.4768 5.40496 20.0142 4.60498 19.3637 3.97298C18.7132 3.34099 17.9002 2.90174 17.015 2.70405L16.676 2.62805ZM7.96501 6.20205C7.77915 6.17499 7.58964 6.2124 7.42801 6.30805H7.41401C7.03901 6.52805 6.70101 6.80505 6.41301 7.13105C6.17301 7.40805 6.043 7.68805 6.00901 7.95805C5.98901 8.11805 6.00301 8.28005 6.05001 8.43304L6.06801 8.44305C6.33801 9.23604 6.69001 9.99904 7.12001 10.717C7.67446 11.7255 8.35676 12.6582 9.15 13.492L9.17401 13.526L9.21201 13.554L9.235 13.581L9.263 13.605C10.0997 14.4007 11.0346 15.0862 12.045 15.645C13.2 16.274 13.901 16.571 14.322 16.695V16.701C14.445 16.739 14.557 16.756 14.67 16.756C15.0285 16.7295 15.3679 16.5838 15.634 16.342C15.959 16.054 16.234 15.715 16.448 15.338V15.331C16.649 14.951 16.581 14.593 16.291 14.35C15.7085 13.8411 15.0786 13.389 14.41 13C13.962 12.757 13.507 12.904 13.323 13.15L12.93 13.646C12.728 13.892 12.362 13.858 12.362 13.858L12.352 13.864C9.62101 13.167 8.89201 10.402 8.89201 10.402C8.89201 10.402 8.85801 10.026 9.11101 9.83404L9.603 9.43805C9.839 9.24605 10.003 8.79205 9.75001 8.34405C9.36361 7.67481 8.91245 7.04512 8.40301 6.46405C8.29189 6.32729 8.13607 6.23415 7.96301 6.20105L7.96501 6.20205ZM12.579 5.00005C12.4464 5.00005 12.3192 5.05272 12.2255 5.14649C12.1317 5.24026 12.079 5.36744 12.079 5.50005C12.079 5.63265 12.1317 5.75983 12.2255 5.8536C12.3192 5.94737 12.4464 6.00005 12.579 6.00005C13.844 6.00005 14.894 6.41305 15.725 7.20505C16.152 7.63805 16.485 8.15105 16.703 8.71305C16.922 9.27605 17.022 9.87704 16.996 10.479C16.9932 10.5447 17.0034 10.6103 17.026 10.672C17.0486 10.7337 17.0831 10.7904 17.1276 10.8387C17.2174 10.9365 17.3424 10.9945 17.475 11C17.6076 11.0056 17.737 10.9583 17.8347 10.8684C17.9324 10.7786 17.9904 10.6537 17.996 10.521C18.027 9.78053 17.9041 9.04163 17.635 8.35105C17.3647 7.65718 16.955 7.02616 16.431 6.49705L16.421 6.48705C15.39 5.50205 14.085 5.00005 12.579 5.00005ZM12.545 6.64405C12.4124 6.64405 12.2852 6.69672 12.1915 6.79049C12.0977 6.88426 12.045 7.01144 12.045 7.14405C12.045 7.27665 12.0977 7.40383 12.1915 7.4976C12.2852 7.59137 12.4124 7.64405 12.545 7.64405H12.562C13.474 7.70905 14.138 8.01305 14.603 8.51205C15.08 9.02605 15.327 9.66504 15.308 10.455C15.305 10.5877 15.3547 10.716 15.4463 10.812C15.5379 10.9079 15.6639 10.9635 15.7965 10.9665C15.9291 10.9696 16.0575 10.9198 16.1534 10.8282C16.2494 10.7366 16.305 10.6107 16.308 10.478C16.332 9.44104 15.998 8.54605 15.336 7.83205V7.83005C14.659 7.10405 13.73 6.72005 12.612 6.64505L12.595 6.64305L12.545 6.64405ZM12.526 8.31905C12.4591 8.31314 12.3917 8.32078 12.3278 8.34151C12.2639 8.36223 12.2048 8.39562 12.1541 8.43968C12.1034 8.48374 12.0621 8.53757 12.0327 8.59794C12.0032 8.65832 11.9862 8.72401 11.9827 8.79109C11.9792 8.85818 11.9893 8.92528 12.0123 8.98839C12.0353 9.0515 12.0708 9.10932 12.1167 9.15841C12.1625 9.2075 12.2178 9.24685 12.2792 9.2741C12.3406 9.30136 12.4068 9.31596 12.474 9.31705C12.892 9.33905 13.159 9.46504 13.327 9.63405C13.496 9.80405 13.622 10.077 13.645 10.504C13.6463 10.5711 13.661 10.6373 13.6884 10.6986C13.7157 10.7599 13.7551 10.815 13.8043 10.8607C13.8534 10.9065 13.9112 10.9418 13.9743 10.9647C14.0374 10.9876 14.1044 10.9976 14.1714 10.994C14.2385 10.9905 14.3041 10.9735 14.3644 10.944C14.4247 10.9146 14.4784 10.8733 14.5224 10.8226C14.5664 10.7719 14.5998 10.7129 14.6205 10.6491C14.6412 10.5852 14.6489 10.5179 14.643 10.451C14.611 9.85105 14.423 9.32104 14.038 8.93105C13.651 8.54105 13.124 8.35105 12.526 8.31905Z" fill="currentColor"/>
	</symbol>

	<symbol viewBox="0 0 24 24" id="instagram">
		<path d="M13.028 2.00099C13.7578 1.99819 14.4875 2.00552 15.217 2.02299L15.411 2.02999C15.635 2.03799 15.856 2.04799 16.123 2.05999C17.187 2.10999 17.913 2.27799 18.55 2.52499C19.21 2.77899 19.766 3.12299 20.322 3.67899C20.8304 4.17859 21.2239 4.78293 21.475 5.44999C21.722 6.08699 21.89 6.81399 21.94 7.87799C21.952 8.14399 21.962 8.36599 21.97 8.58999L21.976 8.78399C21.9938 9.51318 22.0015 10.2426 21.999 10.972L22 11.718V13.028C22.0025 13.7577 21.9948 14.4875 21.977 15.217L21.971 15.411C21.963 15.635 21.953 15.856 21.941 16.123C21.891 17.187 21.721 17.913 21.475 18.55C21.2247 19.2177 20.8311 19.8226 20.322 20.322C19.822 20.8303 19.2173 21.2237 18.55 21.475C17.913 21.722 17.187 21.89 16.123 21.94C15.856 21.952 15.635 21.962 15.411 21.97L15.217 21.976C14.4875 21.9938 13.7578 22.0014 13.028 21.999L12.282 22H10.973C10.2433 22.0025 9.51355 21.9948 8.78403 21.977L8.59003 21.971C8.35264 21.9624 8.1153 21.9524 7.87803 21.941C6.81403 21.891 6.08803 21.721 5.45003 21.475C4.78271 21.2243 4.17827 20.8308 3.67903 20.322C3.17007 19.8223 2.77625 19.2175 2.52503 18.55C2.27803 17.913 2.11003 17.187 2.06003 16.123C2.04889 15.8857 2.03889 15.6484 2.03003 15.411L2.02503 15.217C2.00659 14.4875 1.99826 13.7577 2.00003 13.028V10.972C1.99724 10.2426 2.00457 9.51318 2.02203 8.78399L2.02903 8.58999C2.03703 8.36599 2.04703 8.14399 2.05903 7.87799C2.10903 6.81299 2.27703 6.08799 2.52403 5.44999C2.7754 4.78261 3.16999 4.17843 3.68003 3.67999C4.17892 3.17074 4.78299 2.77656 5.45003 2.52499C6.08803 2.27799 6.81303 2.10999 7.87803 2.05999L8.59003 2.02999L8.78403 2.02499C9.51321 2.00656 10.2426 1.99823 10.972 1.99999L13.028 2.00099ZM12 7.00099C11.3375 6.99162 10.6798 7.11401 10.065 7.36105C9.45022 7.6081 8.89067 7.97486 8.41887 8.44004C7.94707 8.90522 7.57243 9.45952 7.31671 10.0707C7.061 10.682 6.92932 11.3379 6.92932 12.0005C6.92932 12.663 7.061 13.319 7.31671 13.9302C7.57243 14.5414 7.94707 15.0958 8.41887 15.5609C8.89067 16.0261 9.45022 16.3929 10.065 16.6399C10.6798 16.887 11.3375 17.0094 12 17C13.3261 17 14.5979 16.4732 15.5356 15.5355C16.4732 14.5978 17 13.3261 17 12C17 10.6739 16.4732 9.40213 15.5356 8.46445C14.5979 7.52677 13.3261 7.00099 12 7.00099ZM12 9.00099C12.3985 8.99364 12.7945 9.06578 13.1648 9.21319C13.5351 9.3606 13.8724 9.58033 14.1568 9.85953C14.4412 10.1387 14.6672 10.4718 14.8215 10.8393C14.9757 11.2068 15.0552 11.6014 15.0553 12C15.0554 12.3986 14.976 12.7931 14.8219 13.1607C14.6677 13.5283 14.4419 13.8614 14.1575 14.1407C13.8732 14.42 13.536 14.6399 13.1658 14.7874C12.7955 14.9349 12.3995 15.0072 12.001 15C11.2054 15 10.4423 14.6839 9.87971 14.1213C9.3171 13.5587 9.00103 12.7956 9.00103 12C9.00103 11.2043 9.3171 10.4413 9.87971 9.87867C10.4423 9.31606 11.2054 8.99999 12.001 8.99999L12 9.00099ZM17.25 5.50099C16.9274 5.5139 16.6223 5.65114 16.3986 5.88396C16.1749 6.11678 16.05 6.42712 16.05 6.74999C16.05 7.07285 16.1749 7.38319 16.3986 7.61601C16.6223 7.84884 16.9274 7.98607 17.25 7.99899C17.5815 7.99899 17.8995 7.86729 18.1339 7.63287C18.3683 7.39845 18.5 7.08051 18.5 6.74899C18.5 6.41747 18.3683 6.09952 18.1339 5.8651C17.8995 5.63068 17.5815 5.49899 17.25 5.49899V5.50099Z" fill="currentColor"/>	
	</symbol>

	<symbol viewBox="0 0 24 24" id="facebook">
		<path d="M9.198 21.5H13.198V13.49H16.802L17.198 9.51H13.198V7.5C13.198 7.23478 13.3034 6.98043 13.4909 6.79289C13.6784 6.60536 13.9328 6.5 14.198 6.5H17.198V2.5H14.198C12.8719 2.5 11.6002 3.02678 10.6625 3.96447C9.72479 4.90215 9.198 6.17392 9.198 7.5V9.51H7.198L6.802 13.49H9.198V21.5Z" fill="currentColor"/>
	</symbol>

	<symbol viewBox="0 0 32 32" id="close">
		<path d="M24 8L8 24" stroke="currentColor" stroke-linecap="round" stroke-linejoin="round" fill="none"/>
		<path d="M8 8L24 24" stroke="currentColor" stroke-linecap="round" stroke-linejoin="round" fill="none"/>	
	</symbol>

	<symbol viewBox="0 0 20 20" id="check">
		<path d="M5 10.3333L8.33333 13.6667L15 7" fill="transparent" stroke="currentColor" stroke-width="1.5" stroke-linecap="round" stroke-linejoin="round"/>	
	</symbol>

	<symbol viewBox="0 0 16 16" id="size">
		<path d="M12 4L4 12" stroke="currentColor" fill="none" stroke-linecap="round" stroke-linejoin="round"/>
		<path d="M4 4L12 12" stroke="currentColor" fill="none" stroke-linecap="round" stroke-linejoin="round"/>
	</symbol>

	<symbol viewBox="0 0 20 20" id="favorite-active">
		<path d="M17.3666 3.84172C16.941 3.41589 16.4356 3.0781 15.8794 2.84763C15.3232 2.61716 14.727 2.49854 14.1249 2.49854C13.5229 2.49854 12.9267 2.61716 12.3705 2.84763C11.8143 3.0781 11.3089 3.41589 10.8833 3.84172L9.99994 4.72506L9.1166 3.84172C8.25686 2.98198 7.0908 2.49898 5.87494 2.49898C4.65908 2.49898 3.49301 2.98198 2.63327 3.84172C1.77353 4.70147 1.29053 5.86753 1.29053 7.08339C1.29053 8.29925 1.77353 9.46531 2.63327 10.3251L9.99994 17.6917L17.3666 10.3251C17.7924 9.89943 18.1302 9.39407 18.3607 8.83785C18.5912 8.28164 18.7098 7.68546 18.7098 7.08339C18.7098 6.48132 18.5912 5.88514 18.3607 5.32893C18.1302 4.77271 17.7924 4.26735 17.3666 3.84172Z" fill="currentColor"/>
		<path fill-rule="evenodd" clip-rule="evenodd" d="M12.1791 2.38571C12.796 2.1301 13.4572 1.99854 14.1249 1.99854C14.7927 1.99854 15.4539 2.1301 16.0708 2.38571C16.6876 2.64129 17.248 3.01588 17.7201 3.48809C18.1923 3.96011 18.567 4.52071 18.8226 5.13753C19.0782 5.75442 19.2098 6.41564 19.2098 7.08339C19.2098 7.75114 19.0782 8.41235 18.8226 9.02925C18.567 9.64611 18.1924 10.2066 17.7202 10.6786L10.3535 18.0453C10.1582 18.2405 9.84165 18.2405 9.64638 18.0453L2.27972 10.6786C1.3262 9.7251 0.790527 8.43186 0.790527 7.08339C0.790527 5.73492 1.3262 4.44168 2.27972 3.48817C3.23323 2.53466 4.52647 1.99898 5.87494 1.99898C7.22341 1.99898 8.51664 2.53466 9.47016 3.48817L9.99994 4.01795L10.5296 3.48825C11.0017 3.01601 11.5622 2.6413 12.1791 2.38571ZM14.1249 2.99854C13.5885 2.99854 13.0574 3.10422 12.5619 3.30954C12.0663 3.51487 11.6161 3.81582 11.2369 4.19519L10.3535 5.07861C10.1582 5.27387 9.84165 5.27387 9.64638 5.07861L8.76305 4.19528C7.99707 3.4293 6.95819 2.99898 5.87494 2.99898C4.79168 2.99898 3.7528 3.4293 2.98682 4.19528C2.22085 4.96125 1.79053 6.00014 1.79053 7.08339C1.79053 8.16664 2.22085 9.20553 2.98682 9.9715L9.99994 16.9846L17.0131 9.9715C17.3924 9.59231 17.6935 9.14199 17.8988 8.64646C18.1041 8.15092 18.2098 7.61978 18.2098 7.08339C18.2098 6.547 18.1041 6.01586 17.8988 5.52032C17.6935 5.02479 17.3925 4.57456 17.0131 4.19536C16.6339 3.81598 16.1835 3.51487 15.688 3.30954C15.1925 3.10422 14.6613 2.99854 14.1249 2.99854Z" fill="currentColor"/>
	</symbol>

</svg>