<svg width="56" height="32" fill="none" xmlns="http://www.w3.org/2000/svg"><g clip-path="url(#clip0_4602_7690)" fill="#D0D0D0"><path d="M0 8.152h4.458l.544 6.888C7.938 9.853 10.956 4.884 13.972 0h1.469c-3.208 6.23-6.389 12.514-9.46 18.91H2.718l-.789-7.575C1.741 9.44 1.36 8.645 0 8.453v-.302zM16.61 9.44h-5.301l-1.495 9.47h5.328l.299-2.06h-2.882l.272-1.674h2.745l.327-2.058h-2.745l.244-1.62h2.881l.327-2.057z"/><path fill-rule="evenodd" clip-rule="evenodd" d="M18.05 9.44h3.697c2.366 0 2.963 1.373 2.72 2.992-.218 1.373-1.197 2.278-2.447 2.607l2.338 3.87h-3.045l-1.767-3.732-.598 3.733h-2.42l1.523-9.47zm2.122 1.895l-.382 2.387h.707c.68 0 1.332-.522 1.441-1.18.109-.659-.353-1.18-1.033-1.18h-.734v-.027z"/><path d="M28.843 9.44h-2.419l-1.468 9.47h2.42l1.466-9.47zm18.784 13.667c.109-.576.218-1.179.3-1.81-1.986-.659-4.377-.247-5.302.905a2.48 2.48 0 00-.516 1.592c.028.906.788 1.537 1.441 1.894.133.076.295.155.467.238.564.271 1.225.59 1.245 1.052 0 .522-.57.795-1.06.85-1.05.137-1.994-.267-2.7-.568l-.019-.009a38.15 38.15 0 01-.298 1.867c1.794.741 4.458.632 5.654-.522a2.68 2.68 0 00.789-2.03c-.082-1.125-1.006-1.674-1.85-2.086a6.056 6.056 0 00-.255-.128l-.009-.004c-.461-.225-1.04-.505-1.04-.938 0-.467.626-.686 1.141-.714.69-.043 1.209.138 1.665.296.119.042.234.082.348.116zM39.88 9.441h-2.42l-1.467 9.468h2.419l1.468-9.468zm1.848 0h5.302l-.327 2.058h-2.881l-.245 1.62h2.746l-.327 2.057h-2.745l-.272 1.675h2.882l-.327 2.058h-5.3l1.494-9.47v.002zm-11.037 0h5.356l-.327 2.058h-2.935l-.272 1.62h2.69l-.325 2.057h-2.692l-.57 3.733h-2.42l1.495-9.468z"/><path fill-rule="evenodd" clip-rule="evenodd" d="M51.623 9.44h-3.152l-1.468 9.47h3.153c3.017 0 5.382-2.06 5.79-4.721.298-1.894-.571-4.748-4.322-4.748zm-.57 2.059h-.49l-.87 5.352h.653c1.603 0 2.8-1.07 3.071-2.772.218-1.263-.516-2.58-2.364-2.58zM18.92 21.132h-1.578l-1.17 8.289h1.578l.082-.604c.298.493.734.768 1.359.768 1.25 0 2.446-1.208 2.664-2.717.217-1.482-.598-2.717-1.85-2.717-.597 0-1.168.274-1.603.714l.518-3.733zm1.25 5.763c.109-.685-.299-1.207-.87-1.207-.57 0-1.115.549-1.223 1.207-.109.659.299 1.18.87 1.18.598 0 1.142-.521 1.223-1.18z"/><path d="M21.966 24.288h1.902l.816 2.662 1.63-2.661h1.822l-4.757 7.71h-1.822l2.012-3.238-1.603-4.473zm16.881-3.156l-1.386 8.316h2.256l1.386-8.316h-2.257.001zm-4.34 2.7l-.008.019a63.75 63.75 0 01-1.143 2.88l-.245-1.098.027.192a4.866 4.866 0 00-.843-1.62l-.027-.027a1.727 1.727 0 00-.217-.246c-.055-.056-.082-.11-.136-.165a7.964 7.964 0 00-1.903-1.537l2.011 7.19h2.42c.57-1.4 1.162-2.778 1.753-4.158a251.48 251.48 0 001.753-4.157h-2.364c-.378.9-.737 1.81-1.077 2.726h-.001z"/><path fill-rule="evenodd" clip-rule="evenodd" d="M53.445 29.475h2.065l-1.766-8.37H52.03c-.245 0-.843.027-1.006.301-.108.192-.353.632-.49.933l-3.07 7.136h2.364l.517-1.29h2.8c.135.412.163.905.3 1.29zm-2.501-2.964l1.142-3.101.706 3.101h-1.848z"/><path d="M5.491 5.873L1.66 4.227v-.274h7.91v.274l-3.48 5.929h-.272l-.327-4.283zm22.183 15.232h3.67c.517 0 .925.247 1.033.85l.79 3.87c-.708-2.305-3.372-4.116-5.493-4.528v-.192z"/></g><defs><clipPath id="clip0_4602_7690"><path fill="#fff" d="M0 0h56v32H0z"/></clipPath></defs></svg>