<svg width="69" height="24" viewBox="0 0 69 24" fill="none" xmlns="http://www.w3.org/2000/svg">
<g clip-path="url(#clip0_4602_7698)">
<path d="M46.4879 0.488571L46.1472 2.784C45.3899 2.37 44.8215 2.21914 44.2152 2.21914C42.6248 2.21914 41.488 3.83657 41.488 6.13114C41.488 7.71171 42.2461 8.68971 43.4959 8.68971C44.0263 8.68971 44.5938 8.50114 45.314 8.16257L44.9345 10.5703C44.1393 10.7957 43.6477 10.8711 43.0413 10.8711C40.7307 10.8711 39.2912 9.14057 39.2912 6.35743C39.2912 2.59543 41.262 0 44.1393 0C44.5188 0 44.8207 0.0377143 45.1243 0.113143L46.0334 0.338571C46.1282 0.376286 46.1946 0.395143 46.2602 0.414L46.293 0.422571L46.3309 0.433714L46.362 0.444C46.4048 0.45728 46.4471 0.472148 46.4888 0.488571H46.4879Z" fill="#D0D0D0"/>
<path fill-rule="evenodd" clip-rule="evenodd" d="M65.9183 10.0063H65.6906V8.802H66.1822C66.297 8.802 66.4099 8.802 66.4858 8.87743C66.535 8.91038 66.5748 8.95537 66.6014 9.00807C66.628 9.06078 66.6405 9.1194 66.6376 9.17829C66.6376 9.32914 66.5617 9.44143 66.4479 9.47914L66.6756 10.0063H66.2961L66.1072 9.55457H65.9175L65.9183 10.0063ZM65.9554 9.32914H66.1072C66.1831 9.32914 66.221 9.32914 66.259 9.29143C66.2969 9.29143 66.2969 9.25372 66.2969 9.17829C66.2969 9.14057 66.259 9.06514 66.221 9.06514C66.1831 9.02829 66.1072 9.02829 66.0692 9.02829H65.9183L65.9554 9.32914Z" fill="#D0D0D0"/>
<path fill-rule="evenodd" clip-rule="evenodd" d="M64.8574 9.40459C64.8574 8.68973 65.4258 8.08716 66.1451 8.08716C66.8645 8.08716 67.4328 8.68973 67.4328 9.40459C67.4328 10.1186 66.8645 10.7212 66.1451 10.7212C65.4258 10.758 64.8574 10.1563 64.8574 9.40459ZM66.1072 10.4572C66.6376 10.4572 67.0922 10.0063 67.0922 9.44144C67.0922 8.87744 66.6376 8.42573 66.1072 8.42573C65.5768 8.42573 65.1222 8.87744 65.1222 9.44144C65.1222 10.0063 65.5768 10.4572 66.1072 10.4572Z" fill="#D0D0D0"/>
<path d="M39.255 2.04246C39.2807 2.04801 39.3056 2.05665 39.3292 2.06817H39.443C39.0635 2.78389 38.7987 3.5356 38.6098 4.55132H38.458C37.436 4.55132 37.2462 5.41703 36.451 10.6456H34.2922L35.6178 2.14446H37.511L37.3213 3.42332C38.0035 2.4076 38.4201 2.03132 39.1023 2.03132C39.1532 2.03132 39.2041 2.03132 39.255 2.04246ZM26.49 10.5325C25.9207 10.721 25.4291 10.8333 24.9375 10.8333C23.8387 10.8333 23.2323 10.1939 23.2323 8.95275C23.2323 8.7556 23.2616 8.53017 23.2936 8.2756L23.3082 8.16246L23.4592 7.33532L23.573 6.65817L24.52 0.864746H26.6418L26.3761 2.10675H27.4741L27.1714 4.17503H26.0734L25.5041 7.7116C25.4671 7.8616 25.4671 7.97475 25.4671 8.05018C25.4671 8.50103 25.6939 8.6896 26.1864 8.6896C26.452 8.6896 26.603 8.65189 26.7548 8.61417L26.49 10.5325ZM19.6719 7.18446C18.536 6.62046 18.0435 5.9056 18.0435 4.81446C18.0056 3.23475 18.8387 1.95589 21.3003 1.9936C21.7928 1.9936 22.626 2.06903 23.1944 2.18217L22.8916 4.13732H22.889C22.3215 4.06189 21.7549 3.98732 21.3383 3.98732C20.6189 3.98732 20.2774 4.21275 20.2774 4.66446C20.2774 5.07846 20.3542 5.19075 21.2632 5.60475C22.3612 6.13103 22.7778 6.80817 22.7778 7.97475C22.7778 9.89303 21.7557 10.7956 19.483 10.7956C19.2174 10.7956 18.8017 10.7579 18.3083 10.7202C18.0435 10.7202 17.8917 10.6833 17.7408 10.6456L17.3613 10.5702L17.2483 10.5325L17.551 8.57646C18.2704 8.80189 18.8387 8.91503 19.483 8.91503C20.3162 8.91503 20.6948 8.65189 20.6948 8.12475C20.6948 7.74932 20.543 7.59846 19.6719 7.18446Z" fill="#D0D0D0"/>
<path fill-rule="evenodd" clip-rule="evenodd" d="M63.6076 10.6457H61.5618L61.6756 9.81774C61.1081 10.4572 60.4638 10.758 59.7065 10.758C58.1152 10.758 57.0932 9.36688 57.0932 7.22231C57.0932 4.40145 58.6836 1.99374 60.5777 1.99374C61.4108 1.99374 62.0163 2.37002 62.6227 3.15945L63.0772 0.150879H65.1989L63.6076 10.6457ZM60.4259 8.65202C61.4488 8.65202 62.1302 7.48631 62.1302 5.75488C62.1302 4.66459 61.7136 4.06288 60.9943 4.06288C60.0093 4.06288 59.3279 5.26631 59.3279 6.92145C59.3279 8.05031 59.7065 8.65202 60.4259 8.65202ZM31.0724 10.7957C31.8676 10.7957 32.5499 10.6834 33.3071 10.4572L33.6099 8.35116C32.8146 8.68974 32.1333 8.87745 31.376 8.87745C30.1254 8.87745 29.4819 8.38888 29.4819 7.37316C29.4819 7.29774 29.4819 7.26002 29.5199 7.10916H33.7996C33.9894 6.24431 34.0644 5.60488 34.0644 5.00316C34.0644 3.08488 32.9664 1.88059 31.1862 1.88059C29.0274 1.88059 27.4361 4.02516 27.4361 6.95916C27.4361 9.47916 28.6867 10.7957 31.0724 10.7957ZM32.1333 4.96545C32.1333 5.04088 32.1333 5.22859 32.0953 5.37945V5.41716H29.7467C29.9365 4.40145 30.4281 3.87431 31.1103 3.87431C31.7538 3.87431 32.1333 4.28831 32.1333 4.96545Z" fill="#D0D0D0"/>
<path d="M9.40814 10.6457H7.28639L8.49906 2.59546L5.73389 10.6457H4.29524L4.10549 2.63317L2.81864 10.6457H0.809875L2.47709 0.188601H5.545L5.65799 6.65832L7.74179 0.187744H11.0745L9.40814 10.6449V10.6457Z" fill="#D0D0D0"/>
<path fill-rule="evenodd" clip-rule="evenodd" d="M14.7108 10.6456H16.491L16.5281 10.4194L16.566 10.1194L16.604 9.66764L16.6799 9.1405L17.1344 6.13193C17.2862 5.15307 17.3242 4.85221 17.3242 4.43907C17.3242 2.82078 16.3771 1.95593 14.521 1.95593C13.7258 1.95593 13.0065 2.06907 11.9456 2.40764L11.6429 4.32593L11.8326 4.2505L12.0974 4.13736C12.6757 3.96811 13.2748 3.87955 13.8776 3.87421C14.8617 3.87421 15.2404 4.1005 15.2404 4.6645C15.2404 4.8145 15.2404 4.92764 15.1653 5.2285C14.8767 5.18631 14.5858 5.16113 14.2942 5.15307C11.9077 5.15307 10.5061 6.35736 10.5061 8.42564C10.5061 9.81764 11.3022 10.7579 12.4761 10.7579C13.4981 10.7579 14.2183 10.4579 14.7487 9.74221L14.7108 10.6456ZM14.4451 6.80821C14.5969 6.80821 14.7108 6.80821 14.9376 6.84593C14.8997 8.08707 14.2563 8.9905 13.4231 8.95278C12.9306 8.95278 12.627 8.61421 12.627 8.08707C12.627 7.25993 13.2333 6.80821 14.4451 6.80821ZM51.7526 10.6456H49.9724L50.0103 9.74307C49.4799 10.4571 48.7597 10.7579 47.7376 10.7579C46.5638 10.7579 45.7677 9.81764 45.7677 8.4265C45.7677 6.35736 47.1693 5.15307 49.5558 5.15307C49.7826 5.15307 50.1233 5.19078 50.4269 5.2285C50.5028 4.9285 50.5028 4.8145 50.5028 4.6645C50.5028 4.1005 50.1233 3.87421 49.1392 3.87421C48.5329 3.87421 47.8515 3.98736 47.359 4.13736L47.0554 4.21278L46.8657 4.28821L47.1693 2.36993C48.2301 2.03136 48.9495 1.91821 49.7447 1.91821C51.6008 1.91821 52.5478 2.78393 52.5478 4.40136C52.5478 4.8145 52.5099 5.11536 52.3581 6.09421L51.9035 9.10278L51.8285 9.62993L51.7526 10.0431L51.7146 10.3448L51.7526 10.6448V10.6456ZM50.2001 6.84593C49.9724 6.80821 49.8585 6.80821 49.7067 6.80821C48.4949 6.80821 47.8515 7.25993 47.8515 8.08707C47.8515 8.61421 48.1542 8.9905 48.6467 8.9905C49.5178 8.9905 50.1621 8.08707 50.2001 6.84593Z" fill="#D0D0D0"/>
<path d="M57.6719 2.04521C57.6935 2.05035 57.715 2.05807 57.7366 2.06921H57.8504C57.4709 2.78407 57.2062 3.53578 57.0173 4.55149H56.8655C55.8434 4.55149 55.6537 5.41721 54.8584 10.6458H52.6987L53.9864 2.14464H55.9184L55.7287 3.42349C56.4101 2.40778 56.8267 2.03149 57.5089 2.03149C57.5632 2.03149 57.6184 2.03149 57.6719 2.04521Z" fill="#D0D0D0"/>
<path d="M4.97665 15.0463C5.69597 15.0463 6.26436 15.2726 6.643 15.5349L7.24848 13.392C6.7189 13.0526 5.84777 12.9026 4.90075 12.9026C3.2344 12.9026 1.49215 13.7297 1.49215 16.476C1.49215 18.1877 2.44694 18.7183 3.27149 19.1769C3.8968 19.524 4.44621 19.83 4.44621 20.5766C4.44621 21.6669 3.46124 21.8554 2.81781 21.8554C2.13644 21.8554 1.34035 21.6292 0.923762 21.2529L0.431274 23.3974C1.07556 23.6983 1.98377 23.9614 2.77986 23.9614C4.56006 23.9614 6.4912 23.172 6.4912 20.2372C6.4912 18.3146 5.44758 17.7343 4.6006 17.2629C4.02272 16.9423 3.53714 16.6714 3.53714 16.0629C3.53714 15.2349 4.14261 15.0463 4.97665 15.0463ZM44.3282 15.912L44.6698 13.6174C44.5937 13.5871 44.5181 13.5556 44.4429 13.5232C44.3675 13.4907 44.2915 13.4593 44.2152 13.4289L43.3821 13.2034C43.0858 13.1241 42.7798 13.086 42.473 13.0903C39.7837 13.0903 37.9276 15.6857 37.9276 19.4477C37.9276 22.2309 39.2912 23.9614 41.4501 23.9614C42.0184 23.9614 42.5109 23.886 43.2303 23.6614L43.5709 21.2906C42.9275 21.6292 42.3591 21.8177 41.8666 21.8177C40.6928 21.8177 40.0105 20.8397 40.0105 19.2592C40.0105 16.9646 41.0714 15.3472 42.5489 15.3472C43.1164 15.3472 43.6098 15.498 44.3282 15.912Z" fill="#D0D0D0"/>
<path fill-rule="evenodd" clip-rule="evenodd" d="M47.7756 15.084C49.7826 15.084 50.8435 16.7768 50.8435 18.9206C50.8435 22.4948 49.2522 24.0368 47.0174 23.9991C44.8586 23.9991 43.9495 22.2308 43.9495 20.0871C43.9495 17.1154 45.4649 15.084 47.7756 15.084ZM47.1692 22.0054C48.1163 22.0054 48.7217 20.8397 48.7217 18.9206C48.7217 18.018 48.4569 17.1908 47.6609 17.2286C46.6776 17.2286 46.0713 18.7706 46.0713 20.1248C46.0713 21.2528 46.4879 22.0431 47.1692 22.0054Z" fill="#D0D0D0"/>
<path d="M31.3751 15.1595C31.2992 15.1218 31.2233 15.1218 31.1483 15.1218C30.504 15.1218 30.1254 15.4981 29.4811 16.5138L29.6708 15.235H27.8527L26.6409 23.7361H28.6479C29.4052 18.5453 29.5949 17.6418 30.542 17.6418C30.6179 17.6418 30.6179 17.6418 30.6938 17.6795C30.8835 16.6638 31.1103 15.9121 31.451 15.1973L31.3751 15.1595Z" fill="#D0D0D0"/>
<path fill-rule="evenodd" clip-rule="evenodd" d="M55.6916 23.6606H57.5848L59.1002 13.1658H57.1682L56.7137 16.1743C56.1453 15.3858 55.5778 15.0086 54.7817 15.0086C53.0394 15.0086 51.5249 17.4163 51.5249 20.2372C51.5249 22.3818 52.5098 23.7738 53.9485 23.7738C54.6687 23.7738 55.2741 23.4729 55.8046 22.8335L55.6916 23.6606ZM56.1832 18.8083C56.1832 20.5012 55.5398 21.6669 54.5928 21.6669C53.9114 21.6669 53.5699 21.1029 53.5699 20.0126C53.5699 18.3189 54.2141 17.1532 55.1224 17.1532C55.8046 17.1532 56.1832 17.7172 56.1832 18.8075V18.8083ZM12.589 23.6229C11.931 23.8478 11.2399 23.9622 10.544 23.9615C8.3093 23.9615 7.13544 22.6449 7.13544 20.1249C7.13544 17.2278 8.61204 15.0463 10.6199 15.0463C12.2863 15.0463 13.3084 16.2506 13.3084 18.1689C13.3084 18.7706 13.2333 19.4101 13.0436 20.2749H9.06744C9.05191 20.3349 9.04242 20.3778 9.03725 20.4112C9.03265 20.4367 9.02976 20.4625 9.02863 20.4883V20.5389C9.02863 21.5161 9.63496 22.0055 10.8088 22.0055C11.529 22.0055 12.1724 21.8169 12.8918 21.4792L12.589 23.6229ZM11.4531 18.5829C11.4531 18.4672 11.4669 18.3661 11.4781 18.2881V18.2863C11.4831 18.2473 11.4875 18.2081 11.4911 18.1689C11.4911 17.4918 11.1495 17.0778 10.544 17.0778C9.89975 17.0778 9.44521 17.6041 9.25633 18.6206H11.4531V18.5829ZM34.4051 23.9615C35.1244 23.9615 35.7687 23.8492 36.4501 23.6229L36.7537 21.4792C36.0335 21.8178 35.3901 22.0055 34.6699 22.0055C33.4969 22.0055 32.8906 21.5169 32.8906 20.5389C32.8906 20.4901 32.8906 20.4575 32.9 20.4009C32.9061 20.3683 32.9147 20.3289 32.9276 20.2749H36.9426C37.1323 19.4101 37.2082 18.7706 37.2082 18.1689C37.2082 16.2506 36.1474 15.0463 34.481 15.0463C32.4731 15.0463 30.9965 17.2286 30.9965 20.1249C30.9965 22.6449 32.1324 23.9615 34.4051 23.9615ZM35.3521 18.1689C35.3521 18.2443 35.3521 18.3943 35.3142 18.5829V18.6198H33.1174C33.3071 17.6049 33.7617 17.0778 34.4051 17.0778C35.0114 17.0778 35.3521 17.4918 35.3521 18.1689ZM64.4028 23.6229C63.7439 23.8452 63.0529 23.9596 62.357 23.9615C60.1231 23.9615 58.9484 22.6449 58.9484 20.1249C58.9484 17.2278 60.4638 15.0463 62.4708 15.0463C64.1372 15.0463 65.1601 16.2506 65.1601 18.1689C65.1601 18.7706 65.0842 19.4101 64.8945 20.2749H60.9184C60.8804 20.4258 60.8804 20.4635 60.8804 20.5389C60.8804 21.5161 61.4859 22.0055 62.6606 22.0055C63.3799 22.0055 64.0233 21.8169 64.7435 21.4792L64.4028 23.6229ZM63.2661 18.5829C63.2661 18.4672 63.2807 18.3661 63.292 18.2881L63.2971 18.2495L63.2997 18.2238C63.3022 18.2056 63.3037 18.1873 63.304 18.1689C63.304 17.4918 62.9633 17.0778 62.357 17.0778C61.7136 17.0778 61.259 17.6041 61.0693 18.6206H63.2661V18.5829Z" fill="#D0D0D0"/>
<path d="M18.4601 23.623C18.0435 23.8115 17.4751 23.9615 16.6799 23.9615C14.9376 23.9615 13.8388 22.231 13.8388 20.0873C13.8388 17.3033 15.4301 15.1218 17.7399 15.1218C18.2324 15.1218 19.0276 15.3473 19.6339 15.6858L19.1794 17.7173C18.7628 17.4164 18.3083 17.2655 17.8537 17.2655C16.7929 17.2655 15.9976 18.2444 15.9976 19.9741C15.9976 20.9898 16.566 21.817 17.4372 21.817C17.9676 21.817 18.3462 21.7047 18.7628 21.4415L18.4601 23.623ZM25.6939 23.6607C25.7614 22.9312 25.85 22.2037 25.9595 21.4793L26.9057 15.235H24.8227L24.2164 19.147C24.0655 20.4258 23.535 21.4784 22.6639 21.4784C22.0576 21.517 21.8307 20.9898 21.8307 20.5013C21.8307 20.0873 21.9066 19.6355 21.9825 19.2224L22.5121 15.2727H20.3533L19.8237 19.2215C19.7098 20.0873 19.6719 20.4258 19.6719 20.9898C19.6719 22.6073 20.3153 23.887 21.528 23.887C22.6639 23.887 23.2702 23.2467 23.8757 22.3064H23.9137L23.7627 23.6607H25.6939ZM66.4099 23.5853H66.0692V22.1941H65.6147V21.8924H66.8644V22.1933H66.4099V23.5853ZM68.266 23.5853H68.5687V21.8924H68.1142L67.8494 23.2467H67.8115L67.5458 21.8924H67.0542V23.5853H67.3561V22.1573L67.6597 23.5861H67.9624L68.266 22.1573V23.5853Z" fill="#D0D0D0"/>
</g>
<defs>
<clipPath id="clip0_4602_7698">
<rect width="69" height="24" fill="white"/>
</clipPath>
</defs>
</svg>
