<svg width="56" height="32" viewBox="0 0 56 32" fill="none" xmlns="http://www.w3.org/2000/svg">
<g clip-path="url(#clip0_4602_7690)">
<path d="M0 8.15158H4.45794L5.00182 15.04C7.93758 9.85263 10.9556 4.88421 13.9728 0H15.4407C12.2335 6.2299 9.05249 12.5145 5.98012 18.9095H2.71939L1.9303 11.3347C1.74109 9.44 1.36012 8.64505 0 8.45305V8.15074V8.15158ZM16.6099 9.44084H11.3086L9.81358 18.9095H15.1421L15.4407 16.8505H12.5593L12.8308 15.1764H15.5765L15.9032 13.1183H13.1575L13.4018 11.4989H16.2833L16.6099 9.44084Z" fill="#D0D0D0"/>
<path fill-rule="evenodd" clip-rule="evenodd" d="M18.0507 9.44092H21.7475C24.1131 9.44092 24.7104 10.8135 24.4661 12.4321C24.2489 13.8047 23.2697 14.71 22.0199 15.0392L24.3575 18.9095H21.3131L19.5457 15.1765L18.9475 18.9095H16.5285L18.0507 9.44092ZM20.1719 11.3348L19.7901 13.7222H20.4969C21.1765 13.7222 21.829 13.2001 21.9384 12.5424C22.047 11.883 21.5846 11.3618 20.905 11.3618H20.171L20.1719 11.3348Z" fill="#D0D0D0"/>
<path d="M28.8425 9.44078H26.4244L24.9556 18.9094H27.3755L28.8425 9.44078ZM47.6271 23.1073C47.7357 22.5313 47.8452 21.9284 47.9267 21.2968C45.9412 20.6383 43.5502 21.05 42.6253 22.202C42.2738 22.6577 42.0915 23.22 42.1094 23.7936C42.1366 24.6997 42.8968 25.3313 43.5502 25.6884C43.6825 25.7642 43.8454 25.8425 44.0168 25.9258C44.5811 26.197 45.2421 26.5153 45.2624 26.9776C45.2624 27.4997 44.6914 27.7734 44.2018 27.8282C43.1514 27.9646 42.2079 27.5612 41.5028 27.2597L41.4833 27.2513C41.4018 27.8829 41.2932 28.5145 41.1846 29.1183C42.9791 29.8593 45.6434 29.7498 46.8389 28.5962C47.106 28.3313 47.3142 28.0139 47.4501 27.6644C47.586 27.3148 47.6466 26.9409 47.628 26.5667C47.5457 25.4408 46.6217 24.8917 45.7783 24.4799C45.7019 24.4387 45.6145 24.3957 45.5229 24.3519L45.5144 24.3477C45.0528 24.1229 44.4742 23.8425 44.4742 23.4096C44.4742 22.9431 45.0995 22.7242 45.6154 22.6964C46.3052 22.6526 46.8236 22.8336 47.2801 22.9919C47.3989 23.034 47.5143 23.0736 47.628 23.1082L47.6271 23.1073ZM39.8796 9.44078H37.4606L35.9927 18.9094H38.4117L39.8796 9.44078ZM41.7285 9.44078H47.0298L46.7031 11.4989H43.8217L43.5773 13.1183H46.323L45.9964 15.1764H43.2507L42.9791 16.8505H45.8606L45.5339 18.9094H40.2334L41.7285 9.43994V9.44078ZM30.6914 9.44078H36.047L35.7204 11.4989H32.7846L32.5131 13.1183H35.2036L34.8778 15.1764H32.1864L31.6154 18.9094H29.1964L30.6914 9.44078Z" fill="#D0D0D0"/>
<path fill-rule="evenodd" clip-rule="evenodd" d="M51.6235 9.44092H48.4706L47.0027 18.9095H50.1556C53.1729 18.9095 55.5384 16.8506 55.9457 14.1887C56.2444 12.2948 55.3747 9.44092 51.6235 9.44092ZM51.0525 11.499H50.5629L49.6932 16.8506H50.3457C51.9493 16.8506 53.1457 15.7811 53.4172 14.0792C53.6353 12.8161 52.9013 11.499 51.0525 11.499ZM18.9212 21.1319H17.343L16.1738 29.4207H17.7512L17.8326 28.8169C18.1313 29.3104 18.5666 29.5849 19.1919 29.5849C20.4426 29.5849 21.6381 28.3773 21.8561 26.8683C22.0733 25.3862 21.2579 24.1508 20.0064 24.1508C19.4091 24.1508 18.8381 24.4253 18.4028 24.8649L18.9212 21.1319ZM20.171 26.8952C20.2796 26.2098 19.8724 25.6877 19.3013 25.6877C18.7303 25.6877 18.1864 26.2367 18.0778 26.8952C17.9692 27.5538 18.3765 28.0759 18.9475 28.0759C19.5457 28.0759 20.0896 27.5538 20.171 26.8952Z" fill="#D0D0D0"/>
<path d="M21.9656 24.2879H23.8679L24.6841 26.9498L26.3149 24.2887H28.1357L23.3791 31.9999H21.5574L23.5692 28.7612L21.9656 24.2879ZM38.847 21.1317L37.4606 29.4483H39.7167L41.1031 21.1325H38.8462L38.847 21.1317ZM34.507 23.8315L34.4985 23.8508C34.1294 24.8277 33.7603 25.8003 33.3556 26.7308L33.1113 25.6327L33.1384 25.8247C32.9746 25.2487 32.676 24.6997 32.295 24.2054L32.2679 24.1784C32.2035 24.0895 32.1308 24.0069 32.0506 23.9317C31.9963 23.8761 31.9692 23.8222 31.9149 23.7666C31.3642 23.16 30.7222 22.6416 30.0117 22.2298L32.0235 29.4205H34.4425C35.0136 28.0201 35.605 26.6416 36.1963 25.2622C36.7931 23.8816 37.3774 22.4957 37.9493 21.1047H35.5854C35.207 22.0058 34.8478 22.9146 34.5079 23.8306L34.507 23.8315Z" fill="#D0D0D0"/>
<path fill-rule="evenodd" clip-rule="evenodd" d="M53.4452 29.4753H55.5104L53.7439 21.1047H52.0308C51.7864 21.1047 51.1882 21.1317 51.0253 21.4062C50.9167 21.5982 50.6724 22.0378 50.5358 22.3393L47.4642 29.4753H49.829L50.3457 28.1852H53.1457C53.2814 28.5969 53.3094 29.0904 53.4452 29.4753ZM50.9439 26.5111L52.0859 23.4096L52.7919 26.5111H50.9439Z" fill="#D0D0D0"/>
<path d="M5.49142 5.87288L1.65881 4.22741V3.95288H9.56924V4.22741L6.09045 10.1558H5.81809L5.49142 5.87288ZM27.6742 21.1049H31.3439C31.8615 21.1049 32.2688 21.3516 32.3774 21.9554L33.1664 25.8249C32.4588 23.52 29.7946 21.7087 27.6742 21.2969V21.1049Z" fill="#D0D0D0"/>
</g>
<defs>
<clipPath id="clip0_4602_7690">
<rect width="56" height="32" fill="white"/>
</clipPath>
</defs>
</svg>
