<svg width="117" height="32" viewBox="0 0 117 32" fill="none" xmlns="http://www.w3.org/2000/svg">
<g clip-path="url(#clip0_279_5837)">
<path d="M29.4728 5.72449C28.5946 7.82245 27.7315 9.9204 26.8383 12.0184C25.9452 14.1163 25.139 16.2143 24.2099 18.2583H23.2238C21.4256 12.4889 19.6453 6.71053 17.8291 0.875211H20.7513C22.046 5.0981 23.2538 9.37493 24.5845 13.7357C24.9981 12.7227 25.3757 11.8146 25.7444 10.9005C27.0052 7.77749 28.2649 4.65354 29.5237 1.52858C29.8054 0.839253 29.8024 0.839253 30.7225 0.872221C32.245 4.90629 33.7826 8.98831 35.3201 13.0703H35.422L39.1234 0.887202H40.7748C38.9555 6.70154 37.1543 12.4619 35.344 18.2433H34.376C32.7775 14.0893 31.1791 9.91741 29.5806 5.72749H29.4728" fill="#080808"/>
<path d="M55.4008 3.92337V18.1145H54.0132V0.887329H56.5517L65.8696 13.3582L65.9685 13.3312V0.941274H67.4011V18.2374H66.2383L55.5177 3.88441L55.4008 3.93236" fill="#080808"/>
<path d="M98.1419 8.79337V10.199H94.8391H91.5423V16.7746H99.2238V18.1083H88.8359V0.896057H98.6454V2.20278H91.5423V8.79337H98.1419Z" fill="#080808"/>
<path d="M83.1514 4.7354H82.0995C82.0365 4.54659 81.9616 4.3308 81.8897 4.118C81.7397 3.66243 81.4934 3.24449 81.1675 2.89256C80.8417 2.54063 80.4439 2.26296 80.0012 2.07843C79.5585 1.8939 79.0812 1.80683 78.6019 1.82313C78.1226 1.83943 77.6523 1.95872 77.2232 2.1729C75.4969 3.00909 75.1942 5.46969 76.6867 6.74944C77.1298 7.10796 77.6043 7.42593 78.1043 7.69951C79.2043 8.34389 80.3282 8.9493 81.4311 9.59067C82.534 10.232 83.3582 11.0413 83.634 12.288C84.1884 14.7846 83.3073 17.0834 80.6369 18.0125C78.9492 18.6238 77.1006 18.6238 75.413 18.0125C73.7826 17.44 72.9943 16.1872 72.6706 14.5688C72.6287 14.374 72.6107 14.1732 72.5837 13.9694C72.5802 13.9395 72.5802 13.9094 72.5837 13.8795H73.6297C73.6986 14.0953 73.7706 14.3141 73.8395 14.5359C74.2621 15.9565 75.1642 16.8736 76.6687 17.0324C77.4661 17.1211 78.2714 17.1111 79.0664 17.0025C80.2083 16.8346 80.9186 16.1033 81.1643 14.9614C81.4101 13.8196 81.2123 12.7616 80.2652 11.9853C79.767 11.6182 79.2363 11.2972 78.6798 11.0263C77.5798 10.4269 76.4499 9.86041 75.383 9.22803C74.8594 8.93477 74.4111 8.52382 74.0735 8.02761C73.736 7.53141 73.5184 6.96353 73.4379 6.36881C73.0363 3.48562 74.4659 1.13591 77.6578 0.674361C78.3213 0.592394 78.9934 0.612604 79.6508 0.734297C81.545 1.05498 82.588 2.28379 83.0225 4.09403C83.0735 4.30083 83.0975 4.51062 83.1394 4.75338" fill="#080808"/>
<path d="M8.91632 18.1414H6.21894V2.23594H0V0.953186H15.0963V2.19997H8.91632V18.1414Z" fill="#080808"/>
<path d="M108.12 2.22695H101.928V0.953186H117V2.19697H110.802V18.1325H108.12V2.22695Z" fill="#080808"/>
<path d="M45.0728 0.908142H47.6233V18.1683H46.3765H45.0728V0.908142Z" fill="#080808"/>
<path d="M45.6966 26.8267H46.5328L46.8595 31.2564H45.9483L45.7955 28.5021L44.8184 30.5101H43.8594L42.8823 28.5021L42.7295 31.2564H41.8184L42.145 26.8267H42.9812L44.3389 29.6859L45.6966 26.8267Z" fill="#080808"/>
<path d="M50.2046 26.8267H49.2725V31.2564H50.2046V26.8267Z" fill="#080808"/>
<path d="M53.6958 26.8267V30.5161H55.3442V31.2564H52.7637V26.8267H53.6958Z" fill="#080808"/>
<path d="M61.6945 31.2534H60.7324L60.4327 30.3243H58.6105L58.3108 31.2534H57.3457L59.0301 26.8267H60.0401L61.6945 31.2534ZM59.5066 27.561L58.8442 29.584H60.1749L59.5066 27.561Z" fill="#080808"/>
<path d="M66.8439 31.2564L64.7759 28.3552V31.2564H63.8828V26.8267H64.7759L66.8439 29.7249V26.8267H67.7341V31.2564H66.8439Z" fill="#080808"/>
<path d="M74.5049 29.0417C74.5078 29.3478 74.4571 29.6521 74.3551 29.9408C74.2604 30.2095 74.1137 30.457 73.9235 30.6691C73.7288 30.8778 73.4931 31.0441 73.2312 31.1576C72.9318 31.2841 72.6091 31.3464 72.2841 31.3404C71.9581 31.3468 71.6344 31.2845 71.334 31.1576C71.069 31.0423 70.8303 30.874 70.6327 30.6631C70.4425 30.451 70.2959 30.2035 70.2011 29.9348C70.1016 29.6456 70.0519 29.3415 70.0543 29.0357C70.0525 28.7298 70.1021 28.4259 70.2011 28.1365C70.2951 27.8666 70.4418 27.618 70.6327 27.4053C70.8303 27.1943 71.069 27.026 71.334 26.9107C71.6344 26.7839 71.9581 26.7216 72.2841 26.7279C72.6091 26.7219 72.9318 26.7842 73.2312 26.9107C73.4958 27.0253 73.7336 27.1937 73.9295 27.4053C74.1204 27.618 74.2671 27.8666 74.3611 28.1365C74.4625 28.4254 74.5132 28.7296 74.5109 29.0357M72.2841 30.5971C72.4797 30.602 72.6737 30.5609 72.8505 30.4773C73.0094 30.3993 73.1487 30.2866 73.2582 30.1476C73.3702 29.9999 73.4526 29.832 73.5009 29.6531C73.5536 29.4515 73.5798 29.244 73.5788 29.0357C73.58 28.8264 73.5539 28.6178 73.5009 28.4153C73.4526 28.2363 73.3702 28.0684 73.2582 27.9208C73.1487 27.7817 73.0094 27.669 72.8505 27.5911C72.6737 27.5074 72.4797 27.4664 72.2841 27.4712C72.0875 27.466 71.8925 27.5071 71.7147 27.5911C71.5561 27.6683 71.4177 27.7811 71.3101 27.9208C71.1958 28.067 71.1131 28.2354 71.0673 28.4153C71.012 28.6174 70.9848 28.8261 70.9864 29.0357C70.985 29.2442 71.0122 29.4519 71.0673 29.6531C71.1131 29.8329 71.1958 30.0013 71.3101 30.1476C71.4177 30.2872 71.5561 30.4001 71.7147 30.4773C71.8925 30.5613 72.0875 30.6023 72.2841 30.5971Z" fill="#080808"/>
</g>
<defs>
<clipPath id="clip0_279_5837">
<rect width="117" height="32" fill="white"/>
</clipPath>
</defs>
</svg>
