<svg width="104" height="19" viewBox="0 0 104 19" fill="none" xmlns="http://www.w3.org/2000/svg">
<g clip-path="url(#clip0_279_5805)">
<path d="M16.5322 6.01364C16.5322 1.11429 12.0851 0.837921 12.0851 0.837921H0V17.3701L3.66823 17.4706V11.0386H11.7836C17.0849 11.0386 16.5322 6.01364 16.5322 6.01364ZM10.4771 8.50101H3.61798V3.55141H10.2761C10.2761 3.55141 12.9644 3.30016 12.9644 6.08902C12.9644 8.72713 10.4771 8.50101 10.4771 8.50101Z" fill="#080808"/>
<path d="M26.4833 0.862823H22.3628V17.4452H26.4833V0.862823Z" fill="#080808"/>
<path d="M48.0907 17.4452H51.9097V0.862823H48.0907L48.1158 13.1991L37.8649 0.862823H37.0358H33.2168V17.4452H37.0358V5.23455L47.5882 17.4452H48.0907Z" fill="#080808"/>
<path d="M78.8672 17.4452L67.0334 8.75203L77.4853 0.913073H72.1086L62.3351 8.52591V0.862823H58.4658V17.4452H62.3351V9.25453L73.4402 17.4452H78.8672Z" fill="#080808"/>
<path d="M91.8586 18.2493C88.4919 18.2493 85.8035 17.4453 83.7935 15.8374C81.7835 14.2294 80.7534 12.144 80.7534 9.55614C80.7534 6.7924 81.7835 4.58142 83.8438 2.92317C85.904 1.26493 88.718 0.460938 92.2606 0.460938C95.5268 0.460938 98.165 1.26493 100.175 2.87292C102.185 4.48092 103.165 6.56628 103.165 9.15414C103.165 11.9681 102.135 14.1791 100.1 15.8122C98.0393 17.4202 95.3007 18.2493 91.8586 18.2493ZM92.0345 3.19955C89.8737 3.19955 88.1401 3.77742 86.8085 4.90804C85.4769 6.03866 84.7985 7.52102 84.7985 9.38026C84.7985 11.2144 85.4518 12.6967 86.7583 13.8274C88.0648 14.958 89.7732 15.5107 91.8586 15.5107C94.0947 15.5107 95.8786 14.9831 97.16 13.9027C98.4413 12.8224 99.0946 11.34 99.0946 9.40539C99.0946 7.42052 98.4664 5.91303 97.2102 4.83266C95.9791 3.75229 94.2455 3.19955 92.0345 3.19955Z" fill="#080808"/>
</g>
<defs>
<clipPath id="clip0_279_5805">
<rect width="104" height="19" fill="white"/>
</clipPath>
</defs>
</svg>
