<svg width="107" height="18" viewBox="0 0 107 18" fill="none" xmlns="http://www.w3.org/2000/svg">
<g clip-path="url(#clip0_279_5793)">
<path d="M44.1113 0.661011H46.8529L50.8007 8.1729C50.8007 8.1729 53.4601 3.12842 54.8034 0.661011H57.545V17.6862H54.8308V7.43268L51.7055 13.1352H49.8686L46.7706 7.37784V17.7136H44.1113V0.661011Z" fill="#080808"/>
<path d="M65.1119 0.661011H62.0962V17.6862H65.1119V0.661011Z" fill="#080808"/>
<path d="M2.52224 17.6864H0V0.661235H6.74425C6.74425 0.633819 6.74425 0.68865 6.74425 0.661235C8.91009 0.661235 10.8292 1.94977 10.8292 3.73179C10.8292 5.12999 10.884 7.51515 10.884 8.6666C10.884 10.3115 9.07458 11.6275 6.77167 11.6275H2.52224V17.6864ZM2.52224 9.16009H6.96357C7.5393 9.16009 8.19728 8.80368 8.19728 8.22795V6.14436V4.52684C8.19728 3.73179 7.40223 3.37538 6.85391 3.37538H2.52224V9.16009Z" fill="#080808"/>
<path d="M40.219 17.6862H29.8833V0.661011H40.219V3.2655H32.5975V7.46009H38.4644V10.0372H32.5975V15.2462H40.219V17.6862Z" fill="#080808"/>
<path d="M81.3157 17.6862H78.3L77.1211 13.9028H72.625L71.3639 17.6862H68.3481L73.5571 0.661011H76.0794L81.3157 17.6862ZM73.2007 11.0516H76.3535L74.736 5.78774L73.2007 11.0516Z" fill="#080808"/>
<path d="M88.8262 17.6862H86.0024V3.45741H81.7256V0.661011H93.1031V3.45741H88.8262V17.6862Z" fill="#080808"/>
<path d="M25.4692 9.59851C25.7433 8.96795 25.7433 7.51492 25.7159 6.14414C25.6885 4.60887 25.7433 3.18325 25.3321 2.52528C24.6467 1.40123 23.4678 0.852921 22.0422 0.661011H14.6948V17.6862H17.4364V11.7095H19.9312C20.7263 11.7095 21.1923 13.7109 21.4939 14.5334C21.9874 15.8767 22.7002 17.6862 22.7002 17.6862H25.5788C24.866 15.6848 23.413 12.0111 23.3856 11.7095C23.413 11.408 24.8386 11.0242 25.4692 9.59851ZM23.084 8.11807C23.084 8.6938 22.3986 9.0502 21.8503 9.0502H17.409V3.2655H21.7681C22.3164 3.2655 23.084 3.67673 23.084 4.47179V8.11807Z" fill="#080808"/>
<path d="M106.646 17.6862H103.631L102.424 13.9028H97.9282L96.6671 17.6862H93.6514L98.9152 0.661011H101.465L106.646 17.6862ZM98.5588 11.0516H101.712L100.094 5.78774L98.5588 11.0516Z" fill="#080808"/>
</g>
<defs>
<clipPath id="clip0_279_5793">
<rect width="107" height="18" fill="white"/>
</clipPath>
</defs>
</svg>
