<svg width="76" height="23" viewBox="0 0 76 23" fill="none" xmlns="http://www.w3.org/2000/svg">
<g clip-path="url(#clip0_279_5827)">
<path d="M0 0.980347V21.9532H10.4601V19.0622H3.04868V0.980347H0Z" fill="#080808"/>
<path d="M15.7781 0.96698H12.6396V21.931H15.7781V0.96698Z" fill="#080808"/>
<path d="M64.787 0.441406C58.5955 0.441406 53.5757 5.34295 53.5757 11.3921C53.5757 17.4413 58.5955 22.3428 64.787 22.3428C70.9786 22.3428 76.0006 17.4413 76.0006 11.3921C76.0006 5.34295 70.9808 0.441406 64.787 0.441406ZM64.833 19.4803C60.4527 19.4803 56.9003 15.8578 56.9003 11.3899C56.9003 6.92204 60.4527 3.29954 64.833 3.29954C69.2133 3.29954 72.7701 6.92204 72.7701 11.3899C72.7701 15.8578 69.2199 19.4803 64.8396 19.4803" fill="#080808"/>
<path d="M18.4773 0.97821H21.6158V15.9829C21.6158 16.583 21.9947 19.5156 25.558 19.5156C29.1214 19.5156 29.7193 16.6071 29.7193 15.9829V0.97821H32.8556V15.9829C32.8556 15.9829 32.3737 22.3343 25.558 22.3343C18.7423 22.3343 18.4751 15.9829 18.4751 15.9829L18.4773 0.97821Z" fill="#080808"/>
<path d="M39.4802 7.80472C40.0205 7.81422 40.5459 7.98313 40.9905 8.29025C41.435 8.59736 41.779 9.02897 41.9791 9.5309C42.1792 10.0328 42.2266 10.5827 42.1152 11.1115C42.0038 11.6402 41.7387 12.1243 41.3532 12.5029C40.9676 12.8815 40.4788 13.1377 39.9481 13.2394C39.4174 13.3411 38.8685 13.2838 38.3703 13.0745C37.8721 12.8653 37.4468 12.5136 37.1479 12.0635C36.8489 11.6134 36.6896 11.0849 36.6899 10.5446C36.6931 10.1814 36.7678 9.82246 36.9097 9.48818C37.0517 9.1539 37.2581 8.85087 37.5173 8.59642C37.7764 8.34196 38.0831 8.14108 38.4199 8.00524C38.7568 7.86939 39.117 7.80125 39.4802 7.80472Z" fill="#080808"/>
<path d="M47.6753 0.97821H50.8138V15.9829C50.8138 15.9829 51.3263 22.3343 44.8851 22.3343C39.7886 22.3343 38.9717 17.6364 38.9717 17.6364H42.327C42.327 17.6364 42.546 19.555 44.8916 19.5243C48.0082 19.5243 47.6819 15.9851 47.6819 15.9851L47.6753 0.97821Z" fill="#080808"/>
</g>
<defs>
<clipPath id="clip0_279_5827">
<rect width="76" height="23" fill="white"/>
</clipPath>
</defs>
</svg>
