<svg width="131" height="15" viewBox="0 0 131 15" fill="none" xmlns="http://www.w3.org/2000/svg">
<g clip-path="url(#clip0_279_5814)">
<path d="M125.222 14.0713C125.552 14.061 125.867 13.9264 126.102 13.6946C126.338 13.4627 126.478 13.1505 126.493 12.8203V1.80433C126.48 1.47508 126.341 1.1635 126.104 0.934309C125.867 0.705117 125.551 0.575928 125.222 0.573579H124.964V0.370819H131.001V0.573579H130.743C130.412 0.571346 130.094 0.699029 129.856 0.929176C129.618 1.15932 129.48 1.47356 129.472 1.80433V12.8264C129.475 13.1607 129.611 13.4801 129.849 13.7146C130.087 13.9491 130.409 14.0796 130.743 14.0774H131.001V14.2802H124.964V14.0774L125.222 14.0713Z" fill="#080808"/>
<path d="M114.455 0.369019H107.265V0.571779H107.525C108.133 0.571779 108.776 1.08679 108.776 1.70318V12.8246C108.772 13.1551 108.638 13.4708 108.405 13.7045C108.171 13.9382 107.855 14.0714 107.525 14.0756H107.265V14.2784H114.455C119.003 14.2784 122.042 11.8168 122.042 7.32774C122.042 2.83864 118.904 0.369019 114.455 0.369019ZM114.198 13.4166H111.764V1.19628H114.198C117.442 1.19628 118.824 4.05722 118.824 7.55078C118.835 10.7949 117.255 13.4166 114.198 13.4166Z" fill="#080808"/>
<path d="M95.5465 1.24294V12.8003C95.5454 13.1365 95.6778 13.4595 95.9147 13.6983C96.1515 13.937 96.4734 14.072 96.8097 14.0736H97.0733V14.2764H91.0371V14.0736H91.2946C91.4543 14.081 91.6138 14.0568 91.7641 14.0025C91.9144 13.9482 92.0525 13.8648 92.1706 13.7571C92.2886 13.6494 92.3843 13.5195 92.4521 13.3748C92.52 13.2301 92.5586 13.0734 92.5659 12.9138C92.5659 12.8915 92.5659 12.8672 92.5659 12.8428V1.81878C92.5646 1.65316 92.5307 1.48942 92.4661 1.33692C92.4014 1.18441 92.3074 1.04613 92.1894 0.929959C92.0713 0.813789 91.9316 0.722009 91.778 0.659861C91.6245 0.597713 91.4602 0.566414 91.2946 0.56775H91.0371V0.36499H97.8478C100.589 0.36499 102.574 1.47611 102.574 4.29651C102.587 5.19939 102.255 6.07315 101.646 6.74016C101.038 7.40718 100.198 7.81738 99.2976 7.88739C101.601 8.62138 102.495 12.4556 104.521 13.7248C104.908 13.9637 105.358 14.0816 105.812 14.0635V14.2662H103.866C101.741 14.2662 100.092 13.81 99.2023 12.2001C98.9448 11.7642 98.4074 10.6328 97.5538 8.80589C97.1767 8.01107 96.7428 7.55283 96.2035 7.47376V7.29938H96.8381C98.448 7.29938 99.401 5.91048 99.401 4.35936C99.401 2.07629 98.5899 1.24294 96.463 1.24294H95.5465Z" fill="#080808"/>
<path d="M88.8892 14.0715C88.5356 14.0691 88.1906 13.9624 87.8973 13.7648C87.6041 13.5671 87.3757 13.2873 87.2408 12.9604L81.4926 0.369019H81.3344L75.8923 12.9989C75.7555 13.3131 75.5311 13.5813 75.246 13.7715C74.9609 13.9617 74.6271 14.0658 74.2844 14.0715H74.104V14.2743H78.2484V14.0715H78.0822C77.4272 14.0715 77.0298 13.5565 77.3279 12.855L78.3417 10.4725H82.849L83.802 12.855C84.0615 13.4896 83.7635 14.0715 83.068 14.0715H82.8896V14.2743H89.0515V14.0715H88.8892ZM78.6539 9.68381L80.641 4.91693L82.5266 9.68381H78.6539Z" fill="#080808"/>
<path d="M63.0752 9.97985H63.278V10.2982C63.278 12.2244 64.8088 13.7147 66.952 13.7147C68.5619 13.7147 69.7723 12.9199 69.7723 11.4701C69.7723 10.5557 69.1377 10.0508 68.1847 9.42429L64.7378 7.14121C64.1404 6.76019 63.6524 6.23026 63.3218 5.60352C62.9912 4.97677 62.8293 4.27479 62.8522 3.56655C62.8522 1.40108 64.6385 0.0912476 67.0229 0.0912476C67.7569 0.0912476 68.645 0.294008 69.7237 0.294008H70.9747L70.7152 3.21375H70.5124C70.5124 1.70522 69.2959 0.930674 67.7144 0.930674C66.4025 0.930674 65.1109 1.68494 65.1109 2.79809C65.1109 3.59088 65.5692 4.0694 66.5019 4.68376L70.2955 7.1473C71.4857 7.92184 72.0818 8.93361 72.0818 10.2049C72.0818 13.1247 69.8514 14.5541 66.8202 14.5541C65.4495 14.5541 63.5233 14.2175 62.6494 13.3376L63.0752 9.97985Z" fill="#080808"/>
<path d="M49.8947 9.97985H50.0975V10.2982C50.0975 12.2244 51.6263 13.7147 53.7694 13.7147C55.3794 13.7147 56.5898 12.9199 56.5898 11.4701C56.5898 10.5557 55.9552 10.0508 55.0022 9.42429L51.5553 7.14121C50.9579 6.76019 50.4698 6.23026 50.1392 5.60352C49.8086 4.97677 49.6468 4.27479 49.6696 3.56655C49.6696 1.40108 51.456 0.0912476 53.8404 0.0912476C54.5744 0.0912476 55.4625 0.294008 56.5412 0.294008H57.7922L57.5327 3.21375H57.3299C57.3299 1.70522 56.1134 0.930674 54.5298 0.930674C53.2179 0.930674 51.9284 1.68494 51.9284 2.79809C51.9284 3.59088 52.3846 4.0694 53.3173 4.68376L57.1109 7.1473C58.3011 7.92184 58.8972 8.93361 58.8972 10.2049C58.8972 13.1247 56.6669 14.5541 53.6356 14.5541C52.265 14.5541 50.3387 14.2175 49.4648 13.3376L49.8947 9.97985Z" fill="#080808"/>
<path d="M45.6881 0.56775C45.1122 0.56775 44.654 0.944885 44.654 1.50045V9.22561C44.654 12.5428 42.45 14.5481 38.9341 14.5481C35.102 14.5481 32.46 12.8408 32.46 9.24588V1.55925C32.46 0.963132 31.9835 0.56775 31.3874 0.56775H31.0894V0.36499H36.8092V0.56775H36.4807C35.9049 0.56775 35.4284 0.963135 35.4284 1.52072V9.10395C35.4284 11.7662 36.7788 13.6721 39.3011 13.6721C41.7626 13.6721 43.2529 12.0237 43.2529 9.36348V1.52072C43.2529 0.944886 42.7765 0.56775 42.2006 0.56775H41.8742V0.36499H46.0247V0.56775H45.6881Z" fill="#080808"/>
<path d="M20.0571 1.24294V12.8003C20.056 13.1365 20.1884 13.4595 20.4253 13.6983C20.6621 13.937 20.984 14.072 21.3203 14.0736H21.5839V14.2764H15.5376V14.0736H15.7992C15.9588 14.081 16.1183 14.0568 16.2686 14.0025C16.4189 13.9482 16.557 13.8648 16.6751 13.7571C16.7931 13.6494 16.8888 13.5195 16.9567 13.3748C17.0245 13.2301 17.0632 13.0734 17.0705 12.9138C17.0705 12.8915 17.0705 12.8672 17.0705 12.8428V1.81878C17.0691 1.65316 17.0352 1.48942 16.9706 1.33692C16.906 1.18441 16.812 1.04613 16.6939 0.929959C16.5759 0.813789 16.4361 0.722009 16.2826 0.659861C16.129 0.597713 15.9648 0.566414 15.7992 0.56775H15.5416V0.36499H22.3483C25.0896 0.36499 27.0746 1.47611 27.0746 4.29651C27.0871 5.19939 26.7554 6.07315 26.1467 6.74016C25.5381 7.40718 24.6983 7.81738 23.798 7.88739C26.1014 8.62138 26.9956 12.4556 29.0211 13.7248C29.4084 13.9637 29.8581 14.0816 30.3127 14.0635V14.2662H28.3703C26.2453 14.2662 24.5969 13.81 23.7068 12.2001C23.4493 11.7642 22.912 10.6328 22.0584 8.80589C21.6812 8.01107 21.2473 7.55283 20.708 7.47376V7.29938H21.3426C22.9525 7.29938 23.9055 5.91048 23.9055 4.35936C23.9055 2.07629 23.0945 1.24294 20.9675 1.24294H20.0571Z" fill="#080808"/>
<path d="M0.20276 3.44692H0V0C0.537314 0.216953 1.30983 0.336581 2.34391 0.356856H10.357C10.8029 0.353613 11.2478 0.313602 11.6871 0.237229C12.0318 0.190896 12.3713 0.111453 12.7009 0V3.44692H12.4981V3.20766C12.4981 1.97691 11.6648 1.18006 10.5131 1.18006H7.85086V12.8388C7.85779 13.1697 7.99496 13.4845 8.2326 13.715C8.47023 13.9454 8.78915 14.0728 9.12014 14.0695H9.37968V14.2723H3.33945V14.0695H3.59696C3.92252 14.0621 4.23353 13.9332 4.4688 13.7081C4.70407 13.4829 4.84658 13.1779 4.86827 12.853V1.18209H2.18778C0.997575 1.18209 0.20276 1.99313 0.20276 3.20969V3.44692Z" fill="#080808"/>
</g>
<defs>
<clipPath id="clip0_279_5814">
<rect width="131" height="15" fill="white"/>
</clipPath>
</defs>
</svg>
